Muli-200-Extra-Light.ufo
<glyph name="exclam" format="1">
  <advance width="441.85655"/>
  <unicode hex="0021"/>
  <outline>
    <contour>
      <point x="143.312675" y="0.0" type="line"/>
      <point x="299.71" y="0.0" type="line"/>
      <point x="299.71" y="159.703" type="line"/>
      <point x="143.312675" y="159.703" type="line"/>
    </contour>
    <contour>
      <point x="195.983675" y="363.199" type="line"/>
      <point x="251.5048" y="363.199" type="line"/>
      <point x="283.814225" y="1456.0" type="line"/>
      <point x="163.67425" y="1456.0" type="line"/>
    </contour>
  </outline>
</glyph>
<glyph name="numbersign" format="1">
  <advance width="1396.661325"/>
  <unicode hex="0023"/>
  <outline>
    <contour>
      <point x="314.70365" y="109.42425" type="line"/>
      <point x="394.1727" y="510.59875" type="line"/>
      <point x="130.9121" y="510.59875" type="line"/>
      <point x="142.645" y="613.45025" type="line"/>
      <point x="412.90885" y="613.45025" type="line"/>
      <point x="443.2346" y="783.2465"/>
      <point x="428.951175" y="727.778"/>
      <point x="461.009825" y="897.57425" type="curve"/>
      <point x="204.540775" y="897.57425" type="line"/>
      <point x="220.1727" y="996.6525" type="line"/>
      <point x="475.11405" y="996.6525" type="line"/>
      <point x="550.016325" y="1390.17775" type="line"/>
      <point x="664.7329" y="1390.17775" type="line"/>
      <point x="594.162875" y="996.6525" type="line"/>
      <point x="909.7004" y="996.6525" type="line"/>
      <point x="978.97075" y="1390.17775" type="line"/>
      <point x="1093.687325" y="1390.17775" type="line"/>
      <point x="1021.3844" y="996.6525" type="line"/>
      <point x="1277.009825" y="996.6525" type="line"/>
      <point x="1257.745975" y="897.57425" type="line"/>
      <point x="1005.11405" y="897.57425" type="line"/>
      <point x="955.280175" y="613.45025" type="line"/>
      <point x="1207.280175" y="613.45025" type="line"/>
      <point x="1188.016325" y="510.59875" type="line"/>
      <point x="940.44305" y="510.59875" type="line"/>
      <point x="862.7069" y="109.42425" type="line"/>
      <point x="749.29" y="109.42425" type="line"/>
      <point x="821.394225" y="510.59875" type="line"/>
      <point x="505.423475" y="510.59875" type="line"/>
      <point x="429.85345" y="109.42425" type="line"/>
    </contour>
    <contour>
      <point x="520.693825" y="613.45025" type="line"/>
      <point x="841.863275" y="613.45025" type="line"/>
      <point x="892.130375" y="897.57425" type="line"/>
      <point x="576.159625" y="897.57425" type="line"/>
    </contour>
  </outline>
</glyph>
<glyph name="dollar" format="1">
  <advance width="1143.355"/>
  <unicode hex="0024"/>
  <outline>
    <contour>
      <point x="548.042325" y="-173.075" type="line"/>
      <point x="548.042325" y="1641.67375" type="line"/>
      <point x="695.162875" y="1641.67375" type="line"/>
      <point x="695.162875" y="-173.075" type="line"/>
    </contour>
    <component base="S"/>
  </outline>
</glyph>
<glyph name="parenleft" format="1">
  <advance width="564.195375"/>
  <unicode hex="0028"/>
  <outline>
    <contour>
      <point x="419.99675" y="-176.45025" type="line"/>
      <point x="269.5277" y="55.64925"/>
      <point x="163.5896" y="340.20225"/>
      <point x="163.5896" y="659.54975" type="curve" smooth="yes"/>
      <point x="163.5896" y="990.124"/>
      <point x="253.7948" y="1251.323"/>
      <point x="421.5277" y="1516.0" type="curve"/>
      <point x="515.928275" y="1516.0" type="line"/>
      <point x="353.459225" y="1253.12725"/>
      <point x="261.82405" y="985.925"/>
      <point x="261.82405" y="666.77325" type="curve" smooth="yes"/>
      <point x="261.82405" y="370.9755"/>
      <point x="356.928275" y="68.97225"/>
      <point x="517.661175" y="-176.45025" type="curve"/>
    </contour>
  </outline>
</glyph>
<glyph name="asterisk" format="1">
  <advance width="1189.7688"/>
  <unicode hex="002A"/>
  <outline>
    <contour>
      <point x="776.44305" y="799.12575" type="line"/>
      <point x="622.4398" y="1083.2465" type="line"/>
      <point x="477.9675" y="813.7995" type="line"/>
      <point x="399.14345" y="851.6265" type="line"/>
      <point x="563.189025" y="1099.30025" type="line"/>
      <point x="303.0848" y="1165.1485" type="line"/>
      <point x="317.2346" y="1260.42575" type="line"/>
      <point x="584.7623" y="1145.64925" type="line"/>
      <point x="554.7623" y="1459.77325" type="line"/>
      <point x="638.99675" y="1459.77325" type="line"/>
      <point x="646.687325" y="1145.64925" type="line"/>
      <point x="867.426725" y="1260.42575" type="line"/>
      <point x="917.100975" y="1165.1485" type="line"/>
      <point x="676.05865" y="1099.30025" type="line"/>
      <point x="858.7329" y="834.27575" type="line"/>
    </contour>
  </outline>
</glyph>
<glyph name="comma" format="1">
  <advance width="409.664425"/>
  <unicode hex="002C"/>
  <outline>
    <contour>
      <point x="97.5896" y="-256.35075" type="line"/>
      <point x="200.79155" y="164.2495" type="line"/>
      <point x="318.928275" y="164.2495" type="line"/>
      <point x="168.355" y="-256.35075" type="line"/>
    </contour>
  </outline>
</glyph>
<glyph name="period" format="1">
  <advance width="549.53095"/>
  <unicode hex="002E"/>
  <outline>
    <contour>
      <point x="203.9121" y="0.0" type="line"/>
      <point x="203.9121" y="167.2495" type="line"/>
      <point x="365.94135" y="167.2495" type="line"/>
      <point x="365.94135" y="0.0" type="line"/>
    </contour>
  </outline>
</glyph>
<glyph name="slash" format="1">
  <advance width="1622.2513"/>
  <unicode hex="002F"/>
  <outline>
    <contour>
      <point x="523.296725" y="29.7245" type="line"/>
      <point x="950.37805" y="1456.0" type="line"/>
      <point x="1077.46595" y="1456.0" type="line"/>
      <point x="647.55075" y="29.7245" type="line"/>
    </contour>
  </outline>
</glyph>
<glyph name="zero" format="1">
  <advance width="1177.355"/>
  <unicode hex="0030"/>
  <outline>
    <contour>
      <point x="599.309425" y="74.57575" type="curve" smooth="yes"/>
      <point x="852.5277" y="74.57575"/>
      <point x="927.957675" y="358.04725"/>
      <point x="927.957675" y="721.64925" type="curve" smooth="yes"/>
      <point x="927.957675" y="1132.8745"/>
      <point x="847.895775" y="1381.651"/>
      <point x="597.576525" y="1381.651" type="curve" smooth="yes"/>
      <point x="343.723075" y="1381.651"/>
      <point x="238.133475" y="1132.1975"/>
      <point x="238.133475" y="723.32625" type="curve" smooth="yes"/>
      <point x="238.133475" y="359.72425"/>
      <point x="345.455975" y="74.57575"/>
    </contour>
    <contour>
      <point x="597.042325" y="-23.0" type="curve" smooth="yes"/>
      <point x="268.775225" y="-23.0"/>
      <point x="124.0" y="294.2235"/>
      <point x="124.0" y="722.64925" type="curve" smooth="yes"/>
      <point x="124.0" y="1188.64925"/>
      <point x="270.67425" y="1483.0"/>
      <point x="599.042325" y="1483.0" type="curve" smooth="yes"/>
      <point x="928.1433" y="1483.0"/>
      <point x="1053.355" y="1198.5465"/>
      <point x="1053.355" y="720.97225" type="curve" smooth="yes"/>
      <point x="1053.355" y="289.09625"/>
      <point x="927.4104" y="-23.0"/>
    </contour>
  </outline>
</glyph>
<glyph name="one" format="1">
  <advance width="1177.355"/>
  <unicode hex="0031"/>
  <outline>
    <contour>
      <point x="268.4723" y="0.0" type="line"/>
      <point x="268.4723" y="106.05375" type="line"/>
      <point x="561.364825" y="106.05375" type="line"/>
      <point x="561.364825" y="1311.974" type="line"/>
      <point x="456.573275" y="1247.6265"/>
      <point x="349.306175" y="1210.173"/>
      <point x="256.368075" y="1167.72275" type="curve"/>
      <point x="256.368075" y="1271.84825" type="line"/>
      <point x="355.00325" y="1308.52525"/>
      <point x="533.690575" y="1396.7765"/>
      <point x="622.690575" y="1456.0" type="curve"/>
      <point x="671.664425" y="1456.0" type="line"/>
      <point x="671.664425" y="108.08475" type="line"/>
      <point x="939.29635" y="108.08475" type="line"/>
      <point x="939.29635" y="0.0" type="line"/>
    </contour>
  </outline>
</glyph>
<glyph name="two" format="1">
  <advance width="1212.013"/>
  <unicode hex="0032"/>
  <outline>
    <contour>
      <point x="595.8013" y="1482.677" type="curve" smooth="yes"/>
      <point x="859.310755" y="1482.677"/>
      <point x="1043.836623" y="1274.54415"/>
      <point x="1029.178623" y="1041.24494" type="curve" smooth="yes"/>
      <point x="1015.986423" y="886.373273"/>
      <point x="998.2315" y="804.19"/>
      <point x="730.346" y="550.965" type="curve" smooth="yes"/>
      <point x="969.0005" y="793.1"/>
      <point x="401.6221" y="140.305"/>
      <point x="401.6221" y="140.305" type="curve"/>
      <point x="1026.6026" y="140.305" type="line"/>
      <point x="1026.6026" y="0.0" type="line"/>
      <point x="218.2606" y="0.0" type="line"/>
      <point x="218.2606" y="144.46" type="line"/>
      <point x="42.4976" y="5.42"/>
      <point x="888.894" y="949.145"/>
      <point x="666.69125" y="702.0725" type="curve" smooth="yes"/>
      <point x="871.0485" y="893.6"/>
      <point x="849.7138205" y="935.82311"/>
      <point x="866.5705205" y="1021.17816" type="curve" smooth="yes"/>
      <point x="881.2285205" y="1178.62841"/>
      <point x="787.1005193" y="1341.403"/>
      <point x="589.6645" y="1341.403" type="curve" smooth="yes"/>
      <point x="364.6091" y="1341.403"/>
      <point x="233.329" y="1215.08"/>
      <point x="234.0619" y="1215.08" type="curve"/>
      <point x="185.2541" y="1343.031" type="line"/>
      <point x="185.2541" y="1343.031"/>
      <point x="336.1303" y="1482.677"/>
    </contour>
  </outline>
</glyph>
<glyph name="three" format="1">
  <advance width="1177.355"/>
  <unicode hex="0033"/>
  <outline>
    <contour>
      <point x="521.723075" y="-23.0" type="curve" smooth="yes"/>
      <point x="402.11405" y="-23.0"/>
      <point x="229.218275" y="35.628"/>
      <point x="195.426725" y="55.752" type="curve"/>
      <point x="215.573275" y="156.99825" type="line"/>
      <point x="332.544025" y="96.62625"/>
      <point x="429.159625" y="74.57575"/>
      <point x="554.4723" y="74.57575" type="curve" smooth="yes"/>
      <point x="744.837125" y="74.57575"/>
      <point x="921.485375" y="189.473"/>
      <point x="921.485375" y="389.9755" type="curve" smooth="yes"/>
      <point x="921.485375" y="623.7015"/>
      <point x="777.64825" y="719.59875"/>
      <point x="533.749225" y="724.49925" type="curve" smooth="yes"/>
      <point x="451.85345" y="726.2725" type="line"/>
      <point x="449.85345" y="819.752" type="line"/>
      <point x="502.957675" y="819.752" type="line" smooth="yes"/>
      <point x="705.00325" y="819.752"/>
      <point x="894.482125" y="883.87925"/>
      <point x="894.482125" y="1117.02775" type="curve" smooth="yes"/>
      <point x="894.482125" y="1299.07675"/>
      <point x="735.3225" y="1390.8745"/>
      <point x="550.104225" y="1390.8745" type="curve" smooth="yes"/>
      <point x="388.00325" y="1390.8745"/>
      <point x="260.511375" y="1328.54825"/>
      <point x="169.0879" y="1224.27575" type="curve"/>
      <point x="113.94135" y="1281.40125" type="line"/>
      <point x="177.459225" y="1418.64925"/>
      <point x="392.26385" y="1483.0"/>
      <point x="557.4104" y="1483.0" type="curve" smooth="yes"/>
      <point x="771.8827" y="1483.0"/>
      <point x="992.35175" y="1348.0995"/>
      <point x="992.35175" y="1118.67375" type="curve" smooth="yes"/>
      <point x="992.35175" y="914.84825"/>
      <point x="886.09115" y="829.7015"/>
      <point x="740.41365" y="766.677" type="curve"/>
      <point x="922.4169" y="723.54975"/>
      <point x="1031.983675" y="605.124"/>
      <point x="1031.983675" y="392.97225" type="curve" smooth="yes"/>
      <point x="1031.983675" y="138.0"/>
      <point x="820.41365" y="-23.0"/>
    </contour>
  </outline>
</glyph>
<glyph name="four" format="1">
  <advance width="1177.355"/>
  <unicode hex="0034"/>
  <outline>
    <contour>
      <point x="764.358325" y="0.0" type="line"/>
      <point x="764.358325" y="391.2235" type="line"/>
      <point x="101.368075" y="391.2235" type="line"/>
      <point x="101.368075" y="514.9135" type="line"/>
      <point x="679.703575" y="1456.0" type="line"/>
      <point x="881.055325" y="1456.0" type="line"/>
      <point x="881.055325" y="484.9885" type="line"/>
      <point x="1082.928275" y="484.9885" type="line"/>
      <point x="1082.928275" y="391.2235" type="line"/>
      <point x="877.257275" y="391.2235" type="line"/>
      <point x="877.257275" y="0.0" type="line"/>
    </contour>
    <contour>
      <point x="203.77515" y="484.9885" type="line"/>
      <point x="761.7264" y="484.9885" type="line"/>
      <point x="761.7264" y="1376.72125" type="line"/>
      <point x="605.846875" y="1131.881" type="line"/>
    </contour>
  </outline>
</glyph>
<glyph name="five" format="1">
  <advance width="1177.355"/>
  <unicode hex="0035"/>
  <outline>
    <contour>
      <point x="591.840375" y="-23.0" type="curve" smooth="yes"/>
      <point x="434.4723" y="-23.0"/>
      <point x="281.368075" y="-0.248"/>
      <point x="171.53095" y="108.951" type="curve"/>
      <point x="209.88595" y="191.42725" type="line"/>
      <point x="311.517875" y="91.101"/>
      <point x="455.312675" y="74.57575"/>
      <point x="592.4723" y="74.57575" type="curve" smooth="yes"/>
      <point x="878.071725" y="74.57575"/>
      <point x="942.85345" y="265.7145"/>
      <point x="942.85345" y="448.58725" type="curve" smooth="yes"/>
      <point x="942.85345" y="649.95925"/>
      <point x="824.097725" y="796.24475"/>
      <point x="577.2931" y="796.24475" type="curve" smooth="yes"/>
      <point x="464.7035" y="796.24475"/>
      <point x="317.755575" y="733.64275"/>
      <point x="270.491725" y="656.0685" type="curve"/>
      <point x="187.88595" y="632.243" type="line"/>
      <point x="187.88595" y="1456.0" type="line"/>
      <point x="940.7654" y="1456.0" type="line"/>
      <point x="940.7654" y="1356.74725" type="line"/>
      <point x="304.543875" y="1356.74725" type="line"/>
      <point x="289.078075" y="792.14675" type="line"/>
      <point x="356.609025" y="847.119"/>
      <point x="466.872875" y="892.597"/>
      <point x="549.810975" y="892.597" type="curve" smooth="yes"/>
      <point x="896.514625" y="892.597"/>
      <point x="1056.254025" y="704.5595"/>
      <point x="1056.254025" y="446.6835" type="curve" smooth="yes"/>
      <point x="1056.254025" y="216.757"/>
      <point x="962.64825" y="-23.0"/>
    </contour>
  </outline>
</glyph>
<glyph name="eight" format="1">
  <advance width="1178.055325"/>
  <unicode hex="0038"/>
  <outline>
    <contour>
      <point x="585.5292875" y="-23.0" type="curve" smooth="yes"/>
      <point x="362.1156375" y="-23.0"/>
      <point x="128.9527625" y="112.32625"/>
      <point x="128.9527625" y="360.9755" type="curve" smooth="yes"/>
      <point x="128.9527625" y="561.77325"/>
      <point x="244.8485375" y="707.35075"/>
      <point x="475.3306625" y="762.323" type="curve"/>
      <point x="272.5814375" y="808.42575"/>
      <point x="166.3175875" y="941.323"/>
      <point x="166.3175875" y="1124.89725" type="curve" smooth="yes"/>
      <point x="166.3175875" y="1349.5465"/>
      <point x="361.5846875" y="1483.0"/>
      <point x="590.7931375" y="1483.0" type="curve" smooth="yes"/>
      <point x="803.3110125" y="1483.0"/>
      <point x="1014.2035375" y="1354.447"/>
      <point x="1014.2035375" y="1132.248" type="curve" smooth="yes"/>
      <point x="1014.2035375" y="949.35075"/>
      <point x="902.6758375" y="816.87275"/>
      <point x="702.5585375" y="764.77325" type="curve"/>
      <point x="944.7344875" y="705.99675"/>
      <point x="1049.1025625" y="570.89725"/>
      <point x="1049.1025625" y="366.97225" type="curve" smooth="yes"/>
      <point x="1049.1025625" y="117.646"/>
      <point x="831.9983375" y="-23.0"/>
    </contour>
    <contour>
      <point x="588.1612125" y="70.8025" type="curve" smooth="yes"/>
      <point x="793.9136875" y="70.8025"/>
      <point x="941.7019875" y="183.82375"/>
      <point x="941.7019875" y="373.9755" type="curve" smooth="yes"/>
      <point x="941.7019875" y="572.69825"/>
      <point x="800.6433375" y="657.35075"/>
      <point x="583.6302625" y="696.801" type="curve"/>
      <point x="378.4119875" y="655.5775"/>
      <point x="234.4543125" y="562.478"/>
      <point x="234.4543125" y="376.42575" type="curve" smooth="yes"/>
      <point x="234.4543125" y="177.15"/>
      <point x="387.4738875" y="70.8025"/>
    </contour>
    <contour>
      <point x="588.8941125" y="822.2985" type="curve"/>
      <point x="802.0081625" y="854.84825"/>
      <point x="916.3339125" y="949.07175"/>
      <point x="916.3339125" y="1115.67375" type="curve" smooth="yes"/>
      <point x="916.3339125" y="1302.30025"/>
      <point x="763.4804625" y="1400.098"/>
      <point x="589.6270125" y="1400.098" type="curve" smooth="yes"/>
      <point x="424.9364375" y="1400.098"/>
      <point x="266.0862375" y="1298.75375"/>
      <point x="266.0862375" y="1123.7015" type="curve" smooth="yes"/>
      <point x="266.0862375" y="950.42575"/>
      <point x="380.4119875" y="857.2985"/>
    </contour>
  </outline>
</glyph>
<glyph name="nine" format="1">
  <advance width="1181.68725"/>
  <unicode hex="0039"/>
  <outline>
    <contour>
      <point x="545.0537375" y="-23.323" type="curve" smooth="yes"/>
      <point x="418.1579625" y="-23.323"/>
      <point x="333.7475625" y="-7.2545"/>
      <point x="217.5423625" y="56.97225" type="curve"/>
      <point x="231.6270125" y="136.0015" type="line"/>
      <point x="366.5814375" y="73.87425"/>
      <point x="445.4185625" y="73.89875"/>
      <point x="537.3175875" y="73.89875" type="curve" smooth="yes"/>
      <point x="804.9625875" y="73.89875"/>
      <point x="925.1710375" y="301.32625"/>
      <point x="925.1710375" y="676.602" type="curve" smooth="yes"/>
      <point x="925.1710375" y="768.974" type="line"/>
      <point x="866.7019875" y="635.39975"/>
      <point x="758.0668125" y="562.925"/>
      <point x="553.5227875" y="562.925" type="curve" smooth="yes"/>
      <point x="287.4185625" y="562.925"/>
      <point x="150.0081625" y="752.15175"/>
      <point x="150.0081625" y="1013.124" type="curve" smooth="yes"/>
      <point x="150.0081625" y="1278.5465"/>
      <point x="302.3175875" y="1483.0"/>
      <point x="590.4218125" y="1483.0" type="curve" smooth="yes"/>
      <point x="907.7898875" y="1483.0"/>
      <point x="1034.4706375" y="1223.64925"/>
      <point x="1034.4706375" y="776.45025" type="curve" smooth="yes"/>
      <point x="1034.4706375" y="131.5235"/>
      <point x="790.3468375" y="-23.323"/>
    </contour>
    <contour>
      <point x="260.1416375" y="1019.801" type="curve" smooth="yes"/>
      <point x="260.1416375" y="814.74875"/>
      <point x="337.5748625" y="658.274"/>
      <point x="580.6889125" y="658.274" type="curve" smooth="yes"/>
      <point x="778.0114125" y="658.274"/>
      <point x="907.9071875" y="788.9755"/>
      <point x="907.9071875" y="973.84825" type="curve" smooth="yes"/>
      <point x="907.9071875" y="1177.57425"/>
      <point x="815.1742875" y="1381.651"/>
      <point x="568.5292875" y="1381.651" type="curve" smooth="yes"/>
      <point x="366.2067875" y="1381.651"/>
      <point x="260.1416375" y="1224.049"/>
    </contour>
  </outline>
</glyph>
<glyph name="colon" format="1">
  <advance width="475.726325"/>
  <unicode hex="003A"/>
  <outline>
    <contour>
      <point x="161.162875" y="7.447" type="line"/>
      <point x="161.162875" y="174.6965" type="line"/>
      <point x="314.56345" y="174.6965" type="line"/>
      <point x="314.56345" y="7.447" type="line"/>
    </contour>
    <contour>
      <point x="161.162875" y="856.77975" type="line"/>
      <point x="161.162875" y="1023.61" type="line"/>
      <point x="315.29635" y="1023.61" type="line"/>
      <point x="314.56345" y="856.77975" type="line"/>
    </contour>
  </outline>
</glyph>
<glyph name="semicolon" format="1">
  <advance width="549.53095"/>
  <unicode hex="003B"/>
  <outline>
    <contour>
      <point x="126.153125" y="-256.35075" type="line"/>
      <point x="229.38765" y="164.2495" type="line"/>
      <point x="348.2247" y="164.2495" type="line"/>
      <point x="196.918525" y="-256.35075" type="line"/>
    </contour>
    <contour>
      <point x="142.042325" y="833.30175" type="line"/>
      <point x="142.042325" y="1000.55125" type="line"/>
      <point x="332.723075" y="1000.55125" type="line"/>
      <point x="332.723075" y="833.30175" type="line"/>
    </contour>
  </outline>
</glyph>
<glyph name="question" format="1">
  <advance width="1113.078225"/>
  <unicode hex="003F"/>
  <outline>
    <contour>
      <point x="389.64825" y="337.50075" type="line"/>
      <point x="389.64825" y="486.40125" type="line" smooth="yes"/>
      <point x="389.64825" y="716.05375"/>
      <point x="799.2346" y="860.07825"/>
      <point x="799.2346" y="1130.5775" type="curve" smooth="yes"/>
      <point x="799.2346" y="1310.3035"/>
      <point x="658.013075" y="1383.651"/>
      <point x="485.426725" y="1383.651" type="curve" smooth="yes"/>
      <point x="357.895775" y="1383.651"/>
      <point x="260.12055" y="1331.52375"/>
      <point x="212.85345" y="1303.0735" type="curve"/>
      <point x="212.85345" y="1407.54975" type="line"/>
      <point x="368.82095" y="1482.59875"/>
      <point x="501.250925" y="1473.0995"/>
      <point x="502.7948" y="1473.0995" type="curve" smooth="yes"/>
      <point x="758.3225" y="1473.0995"/>
      <point x="900.837125" y="1361.54975"/>
      <point x="900.837125" y="1139.67375" type="curve" smooth="yes"/>
      <point x="900.837125" y="842.884217248"/>
      <point x="470.042325" y="673.0505"/>
      <point x="470.042325" y="479.77325" type="curve" smooth="yes"/>
      <point x="470.042325" y="337.50075" type="line"/>
    </contour>
    <contour>
      <point x="353.482125" y="-20.124" type="line"/>
      <point x="353.482125" y="147.1255" type="line"/>
      <point x="515.9446" y="147.1255" type="line"/>
      <point x="515.9446" y="-20.124" type="line"/>
    </contour>
  </outline>
</glyph>
<glyph name="at" format="1">
  <advance width="1707.09115"/>
  <unicode hex="0040"/>
  <outline>
    <contour>
      <point x="902.309425" y="-69.6525" type="curve" smooth="yes"/>
      <point x="1132.837125" y="-69.6525"/>
      <point x="1391.957675" y="4.69825"/>
      <point x="1481.94135" y="165.62325" type="curve"/>
      <point x="1425.46905" y="201.5775" type="line"/>
      <point x="1323.690575" y="63.20225"/>
      <point x="1091.573275" y="6.30175"/>
      <point x="895.6156" y="6.30175" type="curve" smooth="yes"/>
      <point x="488.96735" y="6.30175"/>
      <point x="199.192125" y="262.5775"/>
      <point x="199.192125" y="699.0245" type="curve" smooth="yes"/>
      <point x="199.192125" y="1102.0995"/>
      <point x="523.986925" y="1395.17625"/>
      <point x="881.355" y="1395.17625" type="curve" smooth="yes"/>
      <point x="1274.895775" y="1395.17625"/>
      <point x="1507.042325" y="1104.4975"/>
      <point x="1507.042325" y="808.2235" type="curve" smooth="yes"/>
      <point x="1507.042325" y="596.1485"/>
      <point x="1397.0" y="339.20225"/>
      <point x="1203.5602" y="339.20225" type="curve" smooth="yes"/>
      <point x="1134.133475" y="339.20225"/>
      <point x="1109.76865" y="357.82375"/>
      <point x="1109.76865" y="418.398" type="curve" smooth="yes"/>
      <point x="1109.76865" y="498.77325"/>
      <point x="1137.195375" y="556.89725"/>
      <point x="1138.133475" y="552.15" type="curve" smooth="yes"/>
      <point x="1270.990175" y="1107.7765" type="line"/>
      <point x="1198.423475" y="1107.7765" type="line"/>
      <point x="1166.159625" y="977.752" type="line"/>
      <point x="1146.423475" y="1102.0"/>
      <point x="1019.27035" y="1147.9005"/>
      <point x="929.2671" y="1147.9005" type="curve" smooth="yes"/>
      <point x="681.41365" y="1147.9005"/>
      <point x="507.426725" y="864.4045"/>
      <point x="481.0" y="625.677" type="curve" smooth="yes"/>
      <point x="458.4723" y="409.0245"/>
      <point x="605.41365" y="279.801"/>
      <point x="756.781725" y="279.801" type="curve" smooth="yes"/>
      <point x="843.2996" y="279.801"/>
      <point x="983.188875" y="352.677"/>
      <point x="1040.983675" y="448.32625" type="curve"/>
      <point x="1040.983675" y="271.95425"/>
      <point x="1081.5602" y="252.323"/>
      <point x="1196.133475" y="252.323" type="curve" smooth="yes"/>
      <point x="1376.43965" y="252.323"/>
      <point x="1597.192125" y="447.473"/>
      <point x="1597.192125" y="803.2235" type="curve" smooth="yes"/>
      <point x="1597.192125" y="1190.19575"/>
      <point x="1284.28985" y="1474.87275"/>
      <point x="891.983675" y="1474.87275" type="curve" smooth="yes"/>
      <point x="494.0" y="1474.87275"/>
      <point x="109.899025" y="1171.646"/>
      <point x="109.899025" y="702.79775" type="curve" smooth="yes"/>
      <point x="109.899025" y="221.57425"/>
      <point x="467.0" y="-69.6525"/>
    </contour>
    <contour>
      <point x="751.82405" y="359.92325" type="curve" smooth="yes"/>
      <point x="625.602525" y="359.92325"/>
      <point x="547.074825" y="455.721"/>
      <point x="547.074825" y="591.323" type="curve" smooth="yes"/>
      <point x="547.074825" y="800.248"/>
      <point x="730.35175" y="1088.775"/>
      <point x="922.042325" y="1088.775" type="curve" smooth="yes"/>
      <point x="1057.5277" y="1088.775"/>
      <point x="1119.05865" y="965.5025"/>
      <point x="1119.05865" y="835.35075" type="curve" smooth="yes"/>
      <point x="1119.05865" y="601.42575"/>
      <point x="930.514625" y="359.92325"/>
    </contour>
  </outline>
</glyph>
<glyph name="B" format="1">
  <advance width="1310.2801"/>
  <unicode hex="0042"/>
  <outline>
    <contour>
      <point x="181.6026" y="0.0" type="line"/>
      <point x="181.6026" y="1456.0" type="line"/>
      <point x="502.22145" y="1456.0" type="line" smooth="yes"/>
      <point x="793.912025" y="1456.0"/>
      <point x="1108.319175" y="1410.13375"/>
      <point x="1108.319175" y="1108.9625" type="curve" smooth="yes"/>
      <point x="1108.319175" y="923.04075"/>
      <point x="989.368" y="768.30825"/>
      <point x="785.615525" y="759.907" type="curve"/>
      <point x="1007.3061" y="744.2545"/>
      <point x="1180.9511" y="611.478"/>
      <point x="1180.9511" y="386.3295" type="curve" smooth="yes"/>
      <point x="1180.9511" y="150.30175"/>
      <point x="1003.586275" y="0.0"/>
      <point x="683.175875" y="0.0" type="curve" smooth="yes"/>
    </contour>
    <contour>
      <point x="290.003175" y="99.25275" type="line"/>
      <point x="658.80455" y="99.25275" type="line" smooth="yes"/>
      <point x="928.65475" y="99.25275"/>
      <point x="1070.9805" y="181.47625"/>
      <point x="1070.9805" y="383.752" type="curve" smooth="yes"/>
      <point x="1070.9805" y="622.124"/>
      <point x="913.231275" y="700.956"/>
      <point x="598.850125" y="700.956" type="curve" smooth="yes"/>
      <point x="290.003175" y="700.956" type="line"/>
    </contour>
    <contour>
      <point x="291.9022" y="804.2055" type="line"/>
      <point x="553.058575" y="804.2055" type="line" smooth="yes"/>
      <point x="800.3974" y="804.2055"/>
      <point x="1000.348575" y="864.137"/>
      <point x="1000.348575" y="1088.863" type="curve" smooth="yes"/>
      <point x="1000.348575" y="1314.36225"/>
      <point x="805.967425" y="1356.74725"/>
      <point x="578.5407" y="1356.74725" type="curve" smooth="yes"/>
      <point x="291.9022" y="1356.74725" type="line"/>
    </contour>
  </outline>
</glyph>
<glyph name="E" format="1">
  <advance width="1058.677425"/>
  <unicode hex="0045"/>
  <outline>
    <contour>
      <point x="181.6026" y="0.0" type="line"/>
      <point x="181.6026" y="1456.0" type="line"/>
      <point x="991.527625" y="1456.0" type="line"/>
      <point x="991.527625" y="1356.74725" type="line"/>
      <point x="291.9022" y="1356.74725" type="line"/>
      <point x="291.9022" y="786.53175" type="line"/>
      <point x="952.794725" y="786.53175" type="line"/>
      <point x="952.794725" y="687.956" type="line"/>
      <point x="290.003175" y="687.956" type="line"/>
      <point x="290.003175" y="99.25275" type="line"/>
      <point x="1022.260525" y="99.25275" type="line"/>
      <point x="1022.260525" y="0.0" type="line"/>
    </contour>
  </outline>
</glyph>
<glyph name="G" format="1">
  <advance width="1513.4723"/>
  <unicode hex="0047"/>
  <outline>
    <contour>
      <point x="833.104225" y="-21.323" type="curve" smooth="yes"/>
      <point x="360.2671" y="-21.323"/>
      <point x="109.899025" y="267.0"/>
      <point x="109.899025" y="698.54975" type="curve" smooth="yes"/>
      <point x="109.899025" y="1223.7505"/>
      <point x="518.400725" y="1481.323"/>
      <point x="834.576525" y="1481.323" type="curve" smooth="yes"/>
      <point x="898.59595" y="1481.323"/>
      <point x="1089.6481" y="1493.52375"/>
      <point x="1309.045575" y="1334.22675" type="curve"/>
      <point x="1262.7329" y="1257.30025" type="line"/>
      <point x="1074.928275" y="1382.24975"/>
      <point x="925.869625" y="1386.10125"/>
      <point x="845.67425" y="1386.10125" type="curve" smooth="yes"/>
      <point x="571.423475" y="1386.10125"/>
      <point x="222.400575" y="1188.47"/>
      <point x="222.400575" y="713.323" type="curve" smooth="yes"/>
      <point x="222.400575" y="333.14675"/>
      <point x="399.397325" y="74.57575"/>
      <point x="834.573275" y="74.57575" type="curve" smooth="yes"/>
      <point x="971.2606" y="74.57575"/>
      <point x="1130.1108" y="97.38"/>
      <point x="1237.804625" y="147.27725" type="curve"/>
      <point x="1237.804625" y="633.8255" type="line"/>
      <point x="840.3844" y="633.8255" type="line"/>
      <point x="840.3844" y="731.40125" type="line"/>
      <point x="1345.4723" y="731.40125" type="line"/>
      <point x="1345.4723" y="79.87275" type="line"/>
      <point x="1201.429975" y="9.77325"/>
      <point x="1006.73615" y="-21.323"/>
    </contour>
  </outline>
</glyph>
<glyph name="K" format="1">
  <advance width="1192.270275"/>
  <unicode hex="004B"/>
  <outline>
    <contour>
      <point x="181.6026" y="0.0" type="line"/>
      <point x="181.6026" y="1456.0" type="line"/>
      <point x="291.9022" y="1456.0" type="line"/>
      <point x="291.9022" y="774.075" type="line"/>
      <point x="1005.700325" y="1456.0" type="line"/>
      <point x="1138.30935" y="1456.0" type="line"/>
      <point x="408.765325" y="758.45025" type="line"/>
      <point x="1183.410325" y="0.0" type="line"/>
      <point x="1057.1303" y="0.0" type="line"/>
      <point x="290.003175" y="744.527" type="line"/>
      <point x="290.003175" y="0.0" type="line"/>
    </contour>
  </outline>
</glyph>
<glyph name="L" format="1">
  <advance width="984.84355"/>
  <unicode hex="004C"/>
  <outline>
    <contour>
      <point x="181.6026" y="0.0" type="line"/>
      <point x="181.6026" y="1456.0" type="line"/>
      <point x="291.9022" y="1456.0" type="line"/>
      <point x="291.9022" y="99.25275" type="line"/>
      <point x="971.1009" y="99.25275" type="line"/>
      <point x="971.1009" y="0.0" type="line"/>
    </contour>
  </outline>
</glyph>
<glyph name="N" format="1">
  <advance width="1486.96735"/>
  <unicode hex="004E"/>
  <outline>
    <contour>
      <point x="181.6026" y="0.0" type="line"/>
      <point x="181.6026" y="1456.0" type="line"/>
      <point x="308.201875" y="1456.0" type="line"/>
      <point x="1162.879525" y="195.82675" type="line"/>
      <point x="1203.59935" y="124.47775" type="line"/>
      <point x="1203.59935" y="1456.0" type="line"/>
      <point x="1305.36475" y="1456.0" type="line"/>
      <point x="1305.36475" y="0.0" type="line"/>
      <point x="1179.498375" y="0.0" type="line"/>
      <point x="316.1888" y="1251.723" type="line"/>
      <point x="288.63185" y="1315.1715" type="line"/>
      <point x="288.63185" y="0.0" type="line"/>
    </contour>
  </outline>
</glyph>
<glyph name="O" format="1">
  <advance width="1571.8892"/>
  <unicode hex="004F"/>
  <outline>
    <contour>
      <point x="790.576525" y="74.57575" type="curve" smooth="yes"/>
      <point x="1195.752475" y="74.57575"/>
      <point x="1340.221525" y="362.74875"/>
      <point x="1340.221525" y="723.0995" type="curve" smooth="yes"/>
      <point x="1340.221525" y="1050.32625"/>
      <point x="1195.31925" y="1385.42425"/>
      <point x="786.778475" y="1385.42425" type="curve" smooth="yes"/>
      <point x="400.7654" y="1385.42425"/>
      <point x="225.76865" y="1047.97225"/>
      <point x="225.76865" y="723.0995" type="curve" smooth="yes"/>
      <point x="225.76865" y="363.42575"/>
      <point x="406.195375" y="74.57575"/>
    </contour>
    <contour>
      <point x="786.045575" y="-21.323" type="curve" smooth="yes"/>
      <point x="351.840375" y="-21.323"/>
      <point x="109.899025" y="266.87275"/>
      <point x="109.899025" y="723.0995" type="curve" smooth="yes"/>
      <point x="109.899025" y="1153.42575"/>
      <point x="349.107475" y="1481.323"/>
      <point x="783.41365" y="1481.323" type="curve" smooth="yes"/>
      <point x="1206.35175" y="1481.323"/>
      <point x="1461.55695" y="1149.9755"/>
      <point x="1461.55695" y="723.0995" type="curve" smooth="yes"/>
      <point x="1461.55695" y="269.54975"/>
      <point x="1213.61885" y="-21.323"/>
    </contour>
  </outline>
</glyph>
<glyph name="R" format="1">
  <advance width="1263.8957"/>
  <unicode hex="0052"/>
  <outline>
    <contour>
      <point x="181.6026" y="0.0" type="line"/>
      <point x="181.6026" y="1456.0" type="line"/>
      <point x="531.30935" y="1456.0" type="line" smooth="yes"/>
      <point x="721.501475" y="1456.0"/>
      <point x="1025.879375" y="1434.56775"/>
      <point x="1025.879375" y="1085.6705" type="curve" smooth="yes"/>
      <point x="1025.879375" y="879.61825"/>
      <point x="952.143225" y="761.09625"/>
      <point x="778.468975" y="714.09625" type="curve"/>
      <point x="970.641675" y="676.8695"/>
      <point x="997.2182" y="468.548"/>
      <point x="1055.583025" y="322.424" type="curve" smooth="yes"/>
      <point x="1184.63185" y="0.0" type="line"/>
      <point x="1067.762225" y="0.0" type="line"/>
      <point x="911.293175" y="407.845" type="line" smooth="yes"/>
      <point x="830.59935" y="616.894"/>
      <point x="808.293175" y="672.4715"/>
      <point x="594.912025" y="672.4715" type="curve" smooth="yes"/>
      <point x="291.9022" y="672.4715" type="line"/>
      <point x="291.9022" y="0.0" type="line"/>
    </contour>
    <contour>
      <point x="294.534125" y="771.8205" type="line"/>
      <point x="558.1628" y="771.8205" type="line" smooth="yes"/>
      <point x="761.850125" y="771.8205"/>
      <point x="909.377825" y="835.84825"/>
      <point x="909.377825" y="1067.22025" type="curve" smooth="yes"/>
      <point x="909.377825" y="1296.94625"/>
      <point x="795.7524" y="1356.74725"/>
      <point x="556.736075" y="1356.74725" type="curve" smooth="yes"/>
      <point x="294.534125" y="1356.74725" type="line"/>
    </contour>
  </outline>
</glyph>
<glyph name="W" format="1">
  <advance width="1827.494975"/>
  <unicode hex="0057"/>
  <outline>
    <contour>
      <point x="409.104225" y="0.0" type="line"/>
      <point x="33.0619" y="1456.0" type="line"/>
      <point x="155.02925" y="1456.0" type="line"/>
      <point x="471.4723" y="178.07625" type="line"/>
      <point x="476.09115" y="102.853" type="line"/>
      <point x="482.91195" y="160.7255" type="line"/>
      <point x="857.250775" y="1456.0" type="line"/>
      <point x="988.4429" y="1456.0" type="line"/>
      <point x="1355.35175" y="175.2035" type="line"/>
      <point x="1364.605775" y="117.3" type="line"/>
      <point x="1362.491725" y="150.62925" type="line"/>
      <point x="1683.931525" y="1456.0" type="line"/>
      <point x="1794.433075" y="1456.0" type="line"/>
      <point x="1431.85655" y="0.0" type="line"/>
      <point x="1296.254025" y="0.0" type="line"/>
      <point x="923.928275" y="1320.0475" type="line"/>
      <point x="542.872875" y="0.0" type="line"/>
    </contour>
  </outline>
</glyph>
<glyph name="X" format="1">
  <advance width="1033.319025"/>
  <unicode hex="0058"/>
  <outline>
    <contour>
      <point x="944.661175" y="0.0" type="line"/>
      <point x="508.078075" y="661.64775" type="line"/>
      <point x="91.3875" y="0.0" type="line"/>
      <point x="-21.5896" y="0.0" type="line"/>
      <point x="445.459225" y="747.9005" type="line"/>
      <point x="-32.645" y="1456.0" type="line"/>
      <point x="86.26695" y="1456.0" type="line"/>
      <point x="503.016175" y="834.25275" type="line"/>
      <point x="900.97385" y="1456.0" type="line"/>
      <point x="1015.048675" y="1456.0" type="line"/>
      <point x="563.902125" y="752.45025" type="line"/>
      <point x="1055.2083" y="0.0" type="line"/>
    </contour>
  </outline>
</glyph>
<glyph name="Z" format="1">
  <advance width="1146.312675"/>
  <unicode hex="005A"/>
  <outline>
    <contour>
      <point x="117.5896" y="0.0" type="line"/>
      <point x="117.5896" y="60.82375" type="line"/>
      <point x="920.863275" y="1356.74725" type="line"/>
      <point x="153.687325" y="1356.74725" type="line"/>
      <point x="153.687325" y="1456.0" type="line"/>
      <point x="1063.6775" y="1456.0" type="line"/>
      <point x="1063.6775" y="1399.17625" type="line"/>
      <point x="257.136725" y="99.25275" type="line"/>
      <point x="1050.41365" y="99.25275" type="line"/>
      <point x="1050.41365" y="0.0" type="line"/>
    </contour>
  </outline>
</glyph>
<glyph name="backslash" format="1">
  <advance width="790.9121"/>
  <unicode hex="005C"/>
  <outline>
    <contour>
      <point x="573.895775" y="65.899" type="line"/>
      <point x="137.570175" y="1456.0" type="line"/>
      <point x="234.074975" y="1456.0" type="line"/>
      <point x="670.2996" y="65.899" type="line"/>
    </contour>
  </outline>
</glyph>
<glyph name="underscore" format="1">
  <advance width="847.2377"/>
  <unicode hex="005F"/>
  <outline>
    <contour>
      <point x="7.0619" y="-286.3475" type="line"/>
      <point x="7.0619" y="-205.9985" type="line"/>
      <point x="840.1758" y="-205.9985" type="line"/>
      <point x="840.1758" y="-286.3475" type="line"/>
    </contour>
  </outline>
</glyph>
<glyph name="grave" format="1">
  <advance width="581.0065"/>
  <unicode hex="0060"/>
  <outline>
    <contour>
      <point x="445.074975" y="1173.8695" type="line"/>
      <point x="126.9675" y="1458.26425" type="line"/>
      <point x="262.309425" y="1458.26425" type="line"/>
      <point x="498.781725" y="1173.8695" type="line"/>
    </contour>
  </outline>
</glyph>
<glyph name="a" format="1">
  <advance width="1249.576525"/>
  <unicode hex="0061"/>
  <outline>
    <contour>
      <point x="962.162875" y="232.2235" type="line"/>
      <point x="887.4022838" y="60.36353275"/>
      <point x="753.307891925" y="-21.27948185"/>
      <point x="587.75724535" y="-21.27948185" type="curve" smooth="yes"/>
      <point x="249.676982025" y="-21.27948185"/>
      <point x="92.837125" y="204.913298"/>
      <point x="92.837125" y="529.57425" type="curve" smooth="yes"/>
      <point x="92.837125" y="855.17625"/>
      <point x="287.6645" y="1052.0"/>
      <point x="601.837125" y="1052.0" type="curve" smooth="yes"/>
      <point x="845.2541" y="1052.0"/>
      <point x="905.7329" y="865.53825"/>
      <point x="953.100975" y="833.28875" type="curve"/>
      <point x="939.693825" y="839.66725" type="line"/>
      <point x="939.693825" y="1026.0" type="line"/>
      <point x="1044.192125" y="1026.0" type="line"/>
      <point x="1044.192125" y="0.0" type="line"/>
      <point x="943.79155" y="0.0" type="line"/>
      <point x="943.79155" y="240.09625" type="line"/>
    </contour>
    <contour>
      <point x="583.14655" y="964.974" type="curve" smooth="yes"/>
      <point x="288.9706" y="964.974"/>
      <point x="205.23445" y="731.2545"/>
      <point x="205.23445" y="516.677" type="curve" smooth="yes"/>
      <point x="205.23445" y="300.23"/>
      <point x="300.400575" y="65.703"/>
      <point x="581.514625" y="65.703" type="curve" smooth="yes"/>
      <point x="785.514625" y="65.703"/>
      <point x="943.7948" y="243.3735"/>
      <point x="943.7948" y="535.124" type="curve" smooth="yes"/>
      <point x="943.7948" y="748.0245"/>
      <point x="818.837125" y="964.974"/>
    </contour>
  </outline>
</glyph>
<glyph name="c" format="1">
  <advance width="969.925025"/>
  <unicode hex="0063"/>
  <outline>
    <contour>
      <point x="589.34525" y="-21.323" type="curve" smooth="yes"/>
      <point x="318.361575" y="-21.323"/>
      <point x="92.302925" y="142.827"/>
      <point x="92.302925" y="495.64925" type="curve" smooth="yes"/>
      <point x="92.302925" y="856.47475"/>
      <point x="325.92835" y="1052.0"/>
      <point x="605.241025" y="1052.0" type="curve" smooth="yes"/>
      <point x="704.921775" y="1052.0"/>
      <point x="810.592775" y="1015.2235"/>
      <point x="882.596025" y="951.79775" type="curve"/>
      <point x="849.716575" y="877.1975" type="line"/>
      <point x="783.35175" y="934.64775"/>
      <point x="679.28985" y="963.297"/>
      <point x="598.3485" y="963.297" type="curve" smooth="yes"/>
      <point x="439.039075" y="963.297"/>
      <point x="196.071575" y="868.545"/>
      <point x="196.071575" y="499.4225" type="curve" smooth="yes"/>
      <point x="196.071575" y="221.473"/>
      <point x="347.863125" y="65.703"/>
      <point x="571.28985" y="65.703" type="curve" smooth="yes"/>
      <point x="651.4364" y="65.703"/>
      <point x="778.026" y="73.10425"/>
      <point x="879.511375" y="150.8025" type="curve"/>
      <point x="913.8208" y="83.87275" type="line"/>
      <point x="852.042325" y="23.2235"/>
      <point x="731.34525" y="-21.323"/>
    </contour>
  </outline>
</glyph>
<glyph name="d" format="1">
  <advance width="1261.368075"/>
  <unicode hex="0064"/>
  <outline>
    <contour>
      <point x="573.2671" y="-21.323" type="curve" smooth="yes"/>
      <point x="277.47555" y="-21.323"/>
      <point x="90.837125" y="179.90375"/>
      <point x="90.837125" y="504.22675" type="curve" smooth="yes"/>
      <point x="90.837125" y="872.85325"/>
      <point x="301.32575" y="1052.0"/>
      <point x="565.573275" y="1052.0" type="curve" smooth="yes"/>
      <point x="741.73615" y="1052.0"/>
      <point x="894.022825" y="964.0"/>
      <point x="950.44955" y="822.37675" type="curve"/>
      <point x="950.44955" y="1515.8255" type="line"/>
      <point x="1051.1498" y="1515.8255" type="line"/>
      <point x="1051.1498" y="242.6525" type="line"/>
      <point x="1052.8827" y="120.579"/>
      <point x="1055.6156" y="-36.55"/>
      <point x="1055.250775" y="0.0" type="curve"/>
      <point x="955.482125" y="0.0" type="line"/>
      <point x="950.016325" y="219.07675" type="line"/>
      <point x="887.32575" y="72.54975"/>
      <point x="751.73615" y="-21.323"/>
    </contour>
    <contour>
      <point x="560.781725" y="65.703" type="curve" smooth="yes"/>
      <point x="773.309425" y="65.703"/>
      <point x="945.752475" y="205.99825"/>
      <point x="945.752475" y="544.3475" type="curve" smooth="yes"/>
      <point x="945.752475" y="800.0735"/>
      <point x="786.371325" y="964.974"/>
      <point x="577.6775" y="964.974" type="curve" smooth="yes"/>
      <point x="363.35175" y="964.974"/>
      <point x="192.70675" y="801.7505"/>
      <point x="192.70675" y="500.32625" type="curve" smooth="yes"/>
      <point x="192.70675" y="209.35225"/>
      <point x="361.250775" y="65.703"/>
    </contour>
  </outline>
</glyph>
<glyph name="e" format="1">
  <advance width="1118.42015"/>
  <unicode hex="0065"/>
  <outline>
    <contour>
      <point x="612.778475" y="-21.323" type="curve" smooth="yes"/>
      <point x="304.46905" y="-21.323"/>
      <point x="87.2052" y="171.42575"/>
      <point x="87.2052" y="508.22675" type="curve" smooth="yes"/>
      <point x="87.2052" y="866.726"/>
      <point x="306.765475" y="1052.0"/>
      <point x="582.644925" y="1052.0" type="curve" smooth="yes"/>
      <point x="821.133475" y="1052.0"/>
      <point x="1035.7459" y="872.27575"/>
      <point x="1035.7459" y="564.69825" type="curve"/>
      <point x="1035.7459" y="573.82225"/>
      <point x="1034.7459" y="562.9495"/>
      <point x="1036.377825" y="506.7015" type="curve"/>
      <point x="191.3745" y="506.7015" type="line"/>
      <point x="188.11065" y="237.10275"/>
      <point x="358.368" y="65.703"/>
      <point x="600.719825" y="65.703" type="curve" smooth="yes"/>
      <point x="743.179125" y="65.703"/>
      <point x="856.6775" y="105.8955"/>
      <point x="933.684" y="188.02275" type="curve"/>
      <point x="973.990175" y="105.323" type="line"/>
      <point x="898.778475" y="22.77325"/>
      <point x="754.8827" y="-21.323"/>
    </contour>
    <contour>
      <point x="197.1074" y="590.075" type="curve"/>
      <point x="941.951175" y="590.075" type="line"/>
      <point x="928.316" y="837.4715"/>
      <point x="773.06515" y="958.30025"/>
      <point x="569.9511" y="958.30025" type="curve" smooth="yes"/>
      <point x="376.462475" y="958.30025"/>
      <point x="216.84355" y="834.59875"/>
    </contour>
  </outline>
</glyph>
<glyph name="f" format="1">
  <advance width="602.283275"/>
  <unicode hex="0066"/>
  <outline>
    <contour>
      <point x="240.371325" y="0.0" type="line"/>
      <point x="240.371325" y="961.0735" type="line"/>
      <point x="66.100975" y="961.0735" type="line"/>
      <point x="66.100975" y="1026.0" type="line"/>
      <point x="240.371325" y="1026.0" type="line"/>
      <point x="240.371325" y="1171.52375" type="line" smooth="yes"/>
      <point x="240.371325" y="1393.79775"/>
      <point x="295.7329" y="1498.67375"/>
      <point x="582.192125" y="1498.67375" type="curve" smooth="yes"/>
      <point x="622.928275" y="1498.67375" type="line"/>
      <point x="630.09115" y="1415.8745" type="line"/>
      <point x="358.7719" y="1415.8745"/>
      <point x="341.071575" y="1341.49925"/>
      <point x="341.071575" y="1208.54825" type="curve" smooth="yes"/>
      <point x="341.071575" y="1026.0" type="line"/>
      <point x="603.664425" y="1026.0" type="line"/>
      <point x="603.664425" y="961.0735" type="line"/>
      <point x="341.071575" y="961.0735" type="line"/>
      <point x="341.071575" y="0.0" type="line"/>
    </contour>
  </outline>
</glyph>
<glyph name="g" format="1">
  <advance width="1263.0619"/>
  <unicode hex="0067"/>
  <outline>
    <contour>
      <point x="545.35175" y="80.60675" type="curve" smooth="yes"/>
      <point x="779.6775" y="80.60675"/>
      <point x="950.8502" y="245.92975"/>
      <point x="950.8502" y="571.05225" type="curve" smooth="yes"/>
      <point x="950.8502" y="821.651"/>
      <point x="790.73615" y="964.974"/>
      <point x="577.778475" y="964.974" type="curve" smooth="yes"/>
      <point x="360.986925" y="964.974"/>
      <point x="192.70675" y="809.328"/>
      <point x="192.70675" y="512.22675" type="curve" smooth="yes"/>
      <point x="192.70675" y="253.628"/>
      <point x="347.188875" y="80.60675"/>
    </contour>
    <contour>
      <point x="980.016325" y="281.3035" type="line"/>
      <point x="917.666298425" y="107.5647575"/>
      <point x="788.408166725" y="-16.208049825"/>
      <point x="560.5127578" y="-16.208049825" type="curve" smooth="yes"/>
      <point x="284.223312325" y="-16.208049825"/>
      <point x="90.837125" y="197.95163325"/>
      <point x="90.837125" y="505.7765" type="curve" smooth="yes"/>
      <point x="90.837125" y="873.85325"/>
      <point x="306.221525" y="1052.0"/>
      <point x="571.104225" y="1052.0" type="curve" smooth="yes"/>
      <point x="859.1792" y="1052.0"/>
      <point x="920.690575" y="871.951"/>
      <point x="1001.276925" y="770.628" type="curve"/>
      <point x="957.745975" y="772.2985" type="line"/>
      <point x="971.17595" y="1026.0" type="line"/>
      <point x="1059.8827" y="1026.0" type="line"/>
      <point x="1059.8827" y="1026.0"/>
      <point x="1064.4104" y="844.3295"/>
      <point x="1064.4104" y="837.12575" type="curve" smooth="yes"/>
      <point x="1064.4104" y="121.845" type="line" smooth="yes"/>
      <point x="1064.4104" y="-319.52875"/>
      <point x="768.59595" y="-424.80425"/>
      <point x="575.2671" y="-424.80425" type="curve" smooth="yes"/>
      <point x="422.371325" y="-424.80425"/>
      <point x="310.833875" y="-395.80425"/>
      <point x="189.7329" y="-337.2545" type="curve"/>
      <point x="201.573275" y="-242.67875" type="line"/>
      <point x="312.576525" y="-294.33125"/>
      <point x="388.61885" y="-329.74725"/>
      <point x="582.7948" y="-329.74725" type="curve" smooth="yes"/>
      <point x="839.645" y="-329.74725"/>
      <point x="960.645" y="-174.7325"/>
      <point x="960.645" y="156.8435" type="curve" smooth="yes"/>
      <point x="960.645" y="295.30675" type="line"/>
    </contour>
  </outline>
</glyph>
<glyph name="h" format="1">
  <advance width="1267.18895"/>
  <unicode hex="0068"/>
  <outline>
    <contour>
      <point x="204.31925" y="0.0" type="line"/>
      <point x="204.31925" y="1515.8255" type="line"/>
      <point x="304.2866" y="1515.8255" type="line"/>
      <point x="304.2866" y="833.4975" type="line"/>
      <point x="376.182375" y="961.07175"/>
      <point x="504.8208" y="1052.0"/>
      <point x="711.99675" y="1052.0" type="curve" smooth="yes"/>
      <point x="862.807725" y="1052.0"/>
      <point x="1077.46905" y="984.948"/>
      <point x="1077.46905" y="682.297" type="curve" smooth="yes"/>
      <point x="1077.46905" y="0.0" type="line"/>
      <point x="977.5017" y="0.0" type="line"/>
      <point x="977.5017" y="658.9495" type="line" smooth="yes"/>
      <point x="977.5017" y="859.6265"/>
      <point x="905.70365" y="964.974"/>
      <point x="693.32575" y="964.974" type="curve" smooth="yes"/>
      <point x="487.47555" y="964.974"/>
      <point x="304.2866" y="802.92175"/>
      <point x="304.2866" y="628.2235" type="curve" smooth="yes"/>
      <point x="304.2866" y="0.0" type="line"/>
    </contour>
  </outline>
</glyph>
<glyph name="i" format="1">
  <advance width="491.20845"/>
  <unicode hex="0069"/>
  <outline>
    <contour>
      <point x="188.557025" y="0.0" type="line"/>
      <point x="188.557025" y="1026.0" type="line"/>
      <point x="293.654675" y="1026.0" type="line"/>
      <point x="293.654675" y="0.0" type="line"/>
    </contour>
    <contour>
      <point x="187.25735" y="1345.52375" type="line"/>
      <point x="187.25735" y="1456.0" type="line"/>
      <point x="293.654675" y="1456.0" type="line"/>
      <point x="293.654675" y="1345.52375" type="line"/>
    </contour>
  </outline>
</glyph>
<glyph name="j" format="1">
  <advance width="452.863125"/>
  <unicode hex="006A"/>
  <outline>
    <contour>
      <point x="12.583025" y="-434.59875" type="curve" smooth="yes"/>
      <point x="116.231125" y="-434.59875"/>
      <point x="246.24745" y="-424.8485"/>
      <point x="246.24745" y="-53.72275" type="curve" smooth="yes"/>
      <point x="246.24745" y="1026.0" type="line"/>
      <point x="145.5472" y="1026.0" type="line"/>
      <point x="145.5472" y="-36.049" type="line" smooth="yes"/>
      <point x="145.5472" y="-257.84675"/>
      <point x="149.700325" y="-348.222"/>
      <point x="-18.947925" y="-348.222" type="curve" smooth="yes"/>
      <point x="-79.316" y="-348.222"/>
      <point x="-138.416975" y="-326.44875"/>
      <point x="-138.416975" y="-326.44875" type="curve"/>
      <point x="-148.886025" y="-413.27575" type="line"/>
      <point x="-54.442975" y="-437.173"/>
      <point x="8.758975" y="-434.59875"/>
    </contour>
    <contour>
      <point x="145.5472" y="1345.52375" type="line"/>
      <point x="246.24745" y="1345.52375" type="line"/>
      <point x="246.24745" y="1456.0" type="line"/>
      <point x="145.5472" y="1456.0" type="line"/>
    </contour>
  </outline>
</glyph>
<glyph name="l" format="1">
  <advance width="509.237775"/>
  <unicode hex="006C"/>
  <outline>
    <contour>
      <point x="201.12055" y="0.0" type="line"/>
      <point x="201.12055" y="1515.8255" type="line"/>
      <point x="302.5537" y="1515.8255" type="line"/>
      <point x="302.5537" y="0.0" type="line"/>
    </contour>
  </outline>
</glyph>
<glyph name="n" format="1">
  <advance width="1260.1922"/>
  <unicode hex="006E"/>
  <outline>
    <contour>
      <point x="203.5896" y="0.0" type="line"/>
      <point x="203.5896" y="880.29875" type="line" smooth="yes"/>
      <point x="203.5896" y="917.79775"/>
      <point x="208.1173" y="1026.0"/>
      <point x="208.1173" y="1026.0" type="curve"/>
      <point x="308.0879" y="1026.0" type="line"/>
      <point x="308.0879" y="846.84825" type="line"/>
      <point x="370.09115" y="957.075"/>
      <point x="508.09115" y="1052.0"/>
      <point x="700.00325" y="1052.0" type="curve" smooth="yes"/>
      <point x="1053.974" y="1052.0"/>
      <point x="1083.46905" y="774.97375"/>
      <point x="1083.46905" y="525.4975" type="curve" smooth="yes"/>
      <point x="1083.46905" y="0.0" type="line"/>
      <point x="983.5017" y="0.0" type="line"/>
      <point x="983.5017" y="480.89875" type="line" smooth="yes"/>
      <point x="983.5017" y="749.9755"/>
      <point x="967.29325" y="964.974"/>
      <point x="685.7948" y="964.974" type="curve" smooth="yes"/>
      <point x="405.5048" y="964.974"/>
      <point x="305.28985" y="723.752"/>
      <point x="303.55695" y="678.27575" type="curve"/>
      <point x="303.55695" y="0.0" type="line"/>
    </contour>
  </outline>
</glyph>
<glyph name="p" format="1">
  <advance width="1241.40715"/>
  <unicode hex="0070"/>
  <outline>
    <contour>
      <point x="202.423475" y="-449.05225" type="line"/>
      <point x="202.423475" y="812.32475" type="line" smooth="yes"/>
      <point x="202.423475" y="831.15175"/>
      <point x="205.420225" y="933.67375"/>
      <point x="202.31925" y="1026.0" type="curve"/>
      <point x="305.455975" y="1026.0" type="line"/>
      <point x="305.455975" y="809.274" type="line"/>
      <point x="387.573275" y="988.02125"/>
      <point x="574.423475" y="1052.0"/>
      <point x="667.045575" y="1052.0" type="curve" smooth="yes"/>
      <point x="956.576525" y="1052.0"/>
      <point x="1149.104225" y="881.9495"/>
      <point x="1149.104225" y="528.77325" type="curve" smooth="yes"/>
      <point x="1149.104225" y="146.9265"/>
      <point x="946.312675" y="-21.323"/>
      <point x="682.4723" y="-21.323" type="curve" smooth="yes"/>
      <point x="548.7948" y="-21.323"/>
      <point x="376.042325" y="41.398"/>
      <point x="305.455975" y="190.69825" type="curve"/>
      <point x="305.455975" y="-449.05225" type="line"/>
    </contour>
    <contour>
      <point x="686.79155" y="65.703" type="curve" smooth="yes"/>
      <point x="880.690575" y="65.703"/>
      <point x="1038.70365" y="218.57575"/>
      <point x="1038.70365" y="525.9005" type="curve" smooth="yes"/>
      <point x="1038.70365" y="810.974"/>
      <point x="889.420225" y="964.974"/>
      <point x="698.0554" y="964.974" type="curve" smooth="yes"/>
      <point x="481.99675" y="964.974"/>
      <point x="315.983675" y="792.94625"/>
      <point x="315.983675" y="476.84825" type="curve" smooth="yes"/>
      <point x="315.983675" y="200.548"/>
      <point x="483.7948" y="65.703"/>
    </contour>
  </outline>
</glyph>
<glyph name="t" format="1">
  <advance width="653.43965"/>
  <unicode hex="0074"/>
  <outline>
    <contour>
      <point x="588.270275" y="-0.677" type="line"/>
      <point x="598.576525" y="-0.677" type="line"/>
      <point x="232.76865" y="-0.677"/>
      <point x="251.32575" y="139.30025"/>
      <point x="251.32575" y="326.30175" type="curve" smooth="yes"/>
      <point x="251.32575" y="961.0735" type="line"/>
      <point x="46.224775" y="961.0735" type="line"/>
      <point x="46.224775" y="1026.0" type="line"/>
      <point x="244.162875" y="1026.0" type="line"/>
      <point x="244.162875" y="1320.05225" type="line"/>
      <point x="352.026" y="1349.2235" type="line"/>
      <point x="352.026" y="1026.0" type="line"/>
      <point x="579.2377" y="1026.0" type="line"/>
      <point x="579.2377" y="961.0735" type="line"/>
      <point x="352.026" y="961.0735" type="line"/>
      <point x="352.026" y="323.20225" type="line" smooth="yes"/>
      <point x="352.026" y="122.27725"/>
      <point x="354.37125" y="83.47625"/>
      <point x="588.270275" y="83.47625" type="curve"/>
    </contour>
  </outline>
</glyph>
<glyph name="u" format="1">
  <advance width="1285.24435"/>
  <unicode hex="0075"/>
  <outline>
    <contour>
      <point x="589.485375" y="-21.323" type="curve" smooth="yes"/>
      <point x="244.840375" y="-21.323"/>
      <point x="181.0554" y="221.85"/>
      <point x="181.0554" y="411.7015" type="curve" smooth="yes"/>
      <point x="181.0554" y="1026.0" type="line"/>
      <point x="282.48855" y="1026.0" type="line"/>
      <point x="282.48855" y="407.57425" type="line" smooth="yes"/>
      <point x="282.48855" y="185.94775"/>
      <point x="381.250775" y="65.703"/>
      <point x="598.7948" y="65.703" type="curve" smooth="yes"/>
      <point x="824.44305" y="65.703"/>
      <point x="969.726475" y="240.22675"/>
      <point x="969.726475" y="424.5775" type="curve" smooth="yes"/>
      <point x="969.726475" y="1026.0" type="line"/>
      <point x="1069.693825" y="1026.0" type="line"/>
      <point x="1069.693825" y="224.62475" type="line" smooth="yes"/>
      <point x="1069.693825" y="112.79925"/>
      <point x="1063.79805" y="153.02625"/>
      <point x="1075.0619" y="0.0" type="curve"/>
      <point x="971.127125" y="0.0" type="line"/>
      <point x="969.29325" y="177.89725" type="line"/>
      <point x="864.38115" y="27.82375"/>
      <point x="736.159625" y="-21.323"/>
    </contour>
  </outline>
</glyph>
<glyph name="v" format="1">
  <advance width="948.50805"/>
  <unicode hex="0076"/>
  <outline>
    <contour>
      <point x="419.840375" y="0.0" type="line"/>
      <point x="-4.7948" y="1026.0" type="line"/>
      <point x="96.91195" y="1026.0" type="line"/>
      <point x="434.778475" y="210.326" type="line" smooth="yes"/>
      <point x="479.355" y="77.62625" type="line"/>
      <point x="519.931525" y="210.326" type="line"/>
      <point x="854.26385" y="1026.0" type="line"/>
      <point x="954.602525" y="1026.0" type="line"/>
      <point x="534.0325" y="0.0" type="line"/>
    </contour>
  </outline>
</glyph>
<glyph name="x" format="1">
  <advance width="1114.18245"/>
  <unicode hex="0078"/>
  <outline>
    <contour>
      <point x="57.690575" y="0.0" type="line"/>
      <point x="499.739475" y="527.57425" type="line"/>
      <point x="91.286675" y="1030.1925" type="line"/>
      <point x="201.9576" y="1026.0" type="line"/>
      <point x="548.960925" y="581.026" type="line"/>
      <point x="910.866525" y="1026.0" type="line"/>
      <point x="1033.99675" y="1026.0" type="line"/>
      <point x="615.54395" y="510.199" type="line"/>
      <point x="1052.159625" y="0.0" type="line"/>
      <point x="945.08805" y="0.0" type="line"/>
      <point x="563.8567" y="462.1975" type="line"/>
      <point x="177.455975" y="0.0" type="line"/>
    </contour>
  </outline>
</glyph>
<glyph name="y" format="1">
  <advance width="982.530875"/>
  <unicode hex="0079"/>
  <outline>
    <contour>
      <point x="156.6221" y="-417.42575" type="curve"/>
      <point x="117.840375" y="-345.049" type="line"/>
      <point x="328.5342" y="-290.39975"/>
      <point x="402.837125" y="-143.5465"/>
      <point x="438.73615" y="-54.57425" type="curve" smooth="yes"/>
      <point x="458.368075" y="-6.25125" type="line"/>
      <point x="62.32575" y="1026.0" type="line"/>
      <point x="167.8273" y="1026.0" type="line"/>
      <point x="509.983675" y="97.0765" type="line"/>
      <point x="862.7948" y="1026.0" type="line"/>
      <point x="959.397325" y="1026.0" type="line"/>
      <point x="547.29635" y="-52.22675" type="line" smooth="yes"/>
      <point x="492.6221" y="-199.0505"/>
      <point x="387.107475" y="-374.64925"/>
    </contour>
  </outline>
</glyph>
<glyph name="braceright" format="1">
  <advance width="846.0294"/>
  <unicode hex="007D"/>
  <outline>
    <contour>
      <point x="99.73615" y="-325.4765" type="curve"/>
      <point x="99.73615" y="-248.90075" type="line"/>
      <point x="173.61885" y="-243.4505"/>
      <point x="382.2346" y="-252.84375"/>
      <point x="382.2346" y="-142.9955" type="curve" smooth="yes"/>
      <point x="382.2346" y="194.75175" type="line" smooth="yes"/>
      <point x="382.2346" y="402.94925"/>
      <point x="515.3519" y="503.00475"/>
      <point x="673.9969" y="534.32775" type="curve"/>
      <point x="486.925175" y="573.2005"/>
      <point x="382.2346" y="778.87275"/>
      <point x="382.2346" y="819.4485" type="curve" smooth="yes"/>
      <point x="382.2346" y="995.375" type="line" smooth="yes"/>
      <point x="382.2346" y="1234.2495"/>
      <point x="265.38115" y="1324.00325"/>
      <point x="97.104225" y="1323.32625" type="curve"/>
      <point x="97.104225" y="1400.99825" type="line"/>
      <point x="161.902125" y="1386.3245"/>
      <point x="479.104225" y="1379.77325"/>
      <point x="479.104225" y="1201.79775" type="curve" smooth="yes"/>
      <point x="479.104225" y="899.1745" type="line" smooth="yes"/>
      <point x="479.104225" y="794.7765"/>
      <point x="542.7329" y="614.101"/>
      <point x="741.90885" y="583.0765" type="curve"/>
      <point x="741.90885" y="498.9265" type="line"/>
      <point x="612.215025" y="478.8025"/>
      <point x="480.104225" y="363.52675"/>
      <point x="478.371325" y="215.50225" type="curve"/>
      <point x="478.371325" y="-64.4505" type="line" smooth="yes"/>
      <point x="478.371325" y="-256.67725"/>
      <point x="260.9771" y="-325.4765"/>
    </contour>
  </outline>
</glyph>
<glyph name="asciitilde" format="1">
  <advance width="916.6023"/>
  <unicode hex="007E"/>
  <outline>
    <contour>
      <point x="29.68385" y="419.72275" type="curve"/>
      <point x="-25.08155" y="447.35075" type="line"/>
      <point x="3.18555" y="573.7765"/>
      <point x="59.80115" y="632.9265"/>
      <point x="217.00635" y="632.9265" type="curve" smooth="yes"/>
      <point x="283.21155" y="632.9265"/>
      <point x="356.253875" y="614.628"/>
      <point x="433.257125" y="591.075" type="curve" smooth="yes"/>
      <point x="589.65135" y="532.79925"/>
      <point x="624.573125" y="519.40125"/>
      <point x="689.5308" y="519.40125" type="curve" smooth="yes"/>
      <point x="800.218125" y="519.40125"/>
      <point x="860.1823" y="606.40125"/>
      <point x="882.9152" y="697.40125" type="curve"/>
      <point x="941.68385" y="676.64925" type="line"/>
      <point x="908.315775" y="533.447"/>
      <point x="829.573125" y="432.05225"/>
      <point x="685.898875" y="432.05225" type="curve" smooth="yes"/>
      <point x="629.2637" y="432.05225"/>
      <point x="550.32885" y="461.248"/>
      <point x="468.32885" y="486.89725" type="curve" smooth="yes"/>
      <point x="313.667525" y="547.26925"/>
      <point x="296.165975" y="545.9005"/>
      <point x="217.374425" y="545.9005" type="curve" smooth="yes"/>
      <point x="90.6871" y="545.9005"/>
      <point x="49.784825" y="513.04575"/>
    </contour>
  </outline>
</glyph>
<glyph name="sterling" format="1">
  <advance width="1135.8273"/>
  <unicode hex="00A3"/>
  <outline>
    <contour>
      <point x="145.100975" y="0.0" type="line"/>
      <point x="145.100975" y="104.3735" type="line"/>
      <point x="295.8502" y="192.04725"/>
      <point x="324.46905" y="449.8745"/>
      <point x="324.46905" y="550.17775" type="curve" smooth="yes"/>
      <point x="324.46905" y="713.8255" type="line"/>
      <point x="125.4723" y="713.8255" type="line"/>
      <point x="125.4723" y="790.62475" type="line"/>
      <point x="325.368075" y="790.62475" type="line"/>
      <point x="325.368075" y="1001.20075" type="line" smooth="yes"/>
      <point x="325.368075" y="1276.59875"/>
      <point x="433.0619" y="1473.7765"/>
      <point x="720.6221" y="1473.7765" type="curve" smooth="yes"/>
      <point x="868.517875" y="1473.7765"/>
      <point x="953.455975" y="1427.2985"/>
      <point x="960.4429" y="1399.0995" type="curve"/>
      <point x="923.9706" y="1324.84675" type="line"/>
      <point x="935.3485" y="1335.2725"/>
      <point x="831.6221" y="1382.65425"/>
      <point x="711.195375" y="1375.527" type="curve" smooth="yes"/>
      <point x="496.5048" y="1362.9495"/>
      <point x="434.400575" y="1205.9005"/>
      <point x="434.400575" y="1026.2725" type="curve" smooth="yes"/>
      <point x="434.400575" y="790.62475" type="line"/>
      <point x="826.355" y="790.62475" type="line"/>
      <point x="826.355" y="713.8255" type="line"/>
      <point x="438.2996" y="713.8255" type="line"/>
      <point x="438.2996" y="551.628" type="line" smooth="yes"/>
      <point x="438.2996" y="268.5545"/>
      <point x="318.488475" y="112.654"/>
      <point x="279.016175" y="96.47625" type="curve"/>
      <point x="984.872875" y="96.47625" type="line"/>
      <point x="984.872875" y="0.0" type="line"/>
    </contour>
  </outline>
</glyph>
<glyph name="section" format="1">
  <advance width="1023.784975"/>
  <unicode hex="00A7"/>
  <outline>
    <contour>
      <point x="597.576525" y="470.25275" type="curve"/>
      <point x="698.690575" y="521.827"/>
      <point x="787.540775" y="619.97225"/>
      <point x="787.540775" y="722.79775" type="curve" smooth="yes"/>
      <point x="787.540775" y="863.30025"/>
      <point x="551.68075" y="908.1975"/>
      <point x="499.53095" y="943.0735" type="curve"/>
      <point x="390.88595" y="885.4715"/>
      <point x="269.602525" y="817.6705"/>
      <point x="269.602525" y="719.4225" type="curve" smooth="yes"/>
      <point x="269.602525" y="600.04725"/>
      <point x="469.4723" y="519.579"/>
    </contour>
    <contour>
      <point x="465.14655" y="-93.3475" type="curve" smooth="yes"/>
      <point x="388.4723" y="-93.3475"/>
      <point x="283.27035" y="-78.3785"/>
      <point x="221.32575" y="-47.602" type="curve"/>
      <point x="217.426725" y="31.75025" type="line"/>
      <point x="319.957675" y="-18.82725"/>
      <point x="408.0" y="-30.4765"/>
      <point x="469.309425" y="-30.4765" type="curve" smooth="yes"/>
      <point x="665.218275" y="-30.4765"/>
      <point x="756.11405" y="88.60025"/>
      <point x="756.11405" y="178.7275" type="curve"/>
      <point x="760.013075" y="311.12725"/>
      <point x="631.0619" y="370.47475"/>
      <point x="448.3844" y="447.45025" type="curve" smooth="yes"/>
      <point x="291.224775" y="516.67375"/>
      <point x="203.159625" y="579.32625"/>
      <point x="203.159625" y="713.677" type="curve" smooth="yes"/>
      <point x="203.159625" y="843.47475"/>
      <point x="328.44305" y="931.82875"/>
      <point x="462.397475" y="959.5775" type="curve"/>
      <point x="350.605925" y="1020.2545"/>
      <point x="231.79155" y="1107.0245"/>
      <point x="231.79155" y="1230.37525" type="curve" smooth="yes"/>
      <point x="231.79155" y="1399.5775"/>
      <point x="399.2606" y="1501.124"/>
      <point x="608.5277" y="1501.124" type="curve" smooth="yes"/>
      <point x="687.364825" y="1501.124"/>
      <point x="719.781725" y="1484.02775"/>
      <point x="784.455975" y="1466.7015" type="curve"/>
      <point x="784.455975" y="1376.54825" type="line"/>
      <point x="718.82405" y="1417.1225"/>
      <point x="611.62535" y="1426.775"/>
      <point x="573.9446" y="1426.775" type="curve" smooth="yes"/>
      <point x="419.928275" y="1426.775"/>
      <point x="316.400575" y="1343.6265"/>
      <point x="316.400575" y="1227.0245" type="curve" smooth="yes"/>
      <point x="316.400575" y="1133.0"/>
      <point x="357.876125" y="1078.677"/>
      <point x="546.931525" y="1001.7765" type="curve" smooth="yes"/>
      <point x="722.723075" y="936.90375"/>
      <point x="840.925025" y="859.87275"/>
      <point x="840.925025" y="720.323" type="curve" smooth="yes"/>
      <point x="840.925025" y="595.9755"/>
      <point x="742.335425" y="505.97875"/>
      <point x="632.1758" y="451.20225" type="curve"/>
      <point x="742.50155" y="399.752"/>
      <point x="838.990175" y="314.2055"/>
      <point x="838.990175" y="190.17775" type="curve" smooth="yes"/>
      <point x="838.990175" y="17.876"/>
      <point x="669.35175" y="-93.3475"/>
    </contour>
  </outline>
</glyph>
<glyph name="copyright" format="1">
  <advance width="1748.05865"/>
  <unicode hex="00A9"/>
  <outline>
    <contour>
      <point x="472.491875" y="714.0995" type="curve" smooth="yes"/>
      <point x="472.491875" y="1019.925"/>
      <point x="670.550525" y="1185.35075"/>
      <point x="909.491875" y="1185.35075" type="curve" smooth="yes"/>
      <point x="993.436475" y="1185.35075"/>
      <point x="1086.638425" y="1154.89725"/>
      <point x="1145.374575" y="1099.925" type="curve"/>
      <point x="1117.964175" y="1037.651" type="line"/>
      <point x="1061.59935" y="1084.42425"/>
      <point x="972.53745" y="1108.4275"/>
      <point x="902.06515" y="1108.4275" type="curve" smooth="yes"/>
      <point x="767.491875" y="1108.4275"/>
      <point x="561.42015" y="1031.22525"/>
      <point x="561.42015" y="715.7765" type="curve" smooth="yes"/>
      <point x="561.42015" y="485.7026755"/>
      <point x="679.917091025" y="342.12081475"/>
      <point x="880.8186466" y="342.12081475" type="curve" smooth="yes"/>
      <point x="956.943367475" y="342.12081475"/>
      <point x="1063.22986025" y="353.804477"/>
      <point x="1141.85995" y="413.672" type="curve"/>
      <point x="1171.5342" y="351.3295" type="line"/>
      <point x="1122.0234085" y="306.22383975"/>
      <point x="1023.7869348" y="266.286357"/>
      <point x="896.33668135" y="266.286357" type="curve" smooth="yes"/>
      <point x="648.5903993" y="266.286357"/>
      <point x="472.491875" y="412.40092875"/>
    </contour>
    <contour>
      <point x="873.162875" y="1486.77325" type="curve" smooth="yes"/>
      <point x="453.53095" y="1486.77325"/>
      <point x="109.899025" y="1143.323"/>
      <point x="109.899025" y="723.87275" type="curve" smooth="yes"/>
      <point x="109.899025" y="304.4225"/>
      <point x="453.53095" y="-38.35075"/>
      <point x="873.162875" y="-38.35075" type="curve" smooth="yes"/>
      <point x="1292.7948" y="-38.35075"/>
      <point x="1638.159625" y="304.4225"/>
      <point x="1638.159625" y="723.87275" type="curve" smooth="yes"/>
      <point x="1638.159625" y="1143.323"/>
      <point x="1292.7948" y="1486.77325"/>
    </contour>
    <contour>
      <point x="875.628675" y="46.398" type="curve" smooth="yes"/>
      <point x="507.833875" y="46.398"/>
      <point x="208.573275" y="353.74875"/>
      <point x="208.573275" y="718.7765" type="curve" smooth="yes"/>
      <point x="208.573275" y="1085.9005"/>
      <point x="507.833875" y="1393.25125"/>
      <point x="875.628675" y="1393.25125" type="curve" smooth="yes"/>
      <point x="1242.423475" y="1393.25125"/>
      <point x="1541.3844" y="1085.9005"/>
      <point x="1541.3844" y="718.7765" type="curve" smooth="yes"/>
      <point x="1541.3844" y="353.74875"/>
      <point x="1242.423475" y="46.398"/>
    </contour>
  </outline>
</glyph>
<glyph name="degree" format="1">
  <advance width="812.4169"/>
  <unicode hex="00B0"/>
  <outline>
    <contour>
      <point x="406.20845" y="1428.20225" type="curve" smooth="yes"/>
      <point x="231.309425" y="1428.20225"/>
      <point x="115.00325" y="1299.74875"/>
      <point x="115.00325" y="1145.0995" type="curve" smooth="yes"/>
      <point x="115.00325" y="991.12725"/>
      <point x="233.47555" y="859.2235"/>
      <point x="406.20845" y="859.2235" type="curve" smooth="yes"/>
      <point x="578.20845" y="859.2235"/>
      <point x="697.41365" y="991.12725"/>
      <point x="697.41365" y="1145.0995" type="curve" smooth="yes"/>
      <point x="697.41365" y="1299.74875"/>
      <point x="579.94135" y="1428.20225"/>
    </contour>
    <contour>
      <point x="406.20845" y="944.52525" type="curve" smooth="yes"/>
      <point x="269.784975" y="944.52525"/>
      <point x="208.6156" y="1044.00325"/>
      <point x="208.6156" y="1146.7765" type="curve" smooth="yes"/>
      <point x="208.6156" y="1250.22675"/>
      <point x="275.4169" y="1344.67375"/>
      <point x="406.20845" y="1344.67375" type="curve" smooth="yes"/>
      <point x="535.5342" y="1344.67375"/>
      <point x="601.46905" y="1250.22675"/>
      <point x="601.46905" y="1146.7765" type="curve" smooth="yes"/>
      <point x="601.46905" y="1044.00325"/>
      <point x="541.166125" y="944.52525"/>
    </contour>
  </outline>
</glyph>
<glyph name="plusminus" format="1">
  <advance width="1179.521125"/>
  <unicode hex="00B1"/>
  <outline>
    <contour>
      <point x="555.690575" y="209.3735" type="line"/>
      <point x="555.690575" y="597.45025" type="line"/>
      <point x="198.364825" y="597.45025" type="line"/>
      <point x="198.364825" y="690.9265" type="line"/>
      <point x="556.3225" y="690.9265" type="line"/>
      <point x="556.3225" y="1078.97225" type="line"/>
      <point x="639.09115" y="1078.97225" type="line"/>
      <point x="639.09115" y="690.9265" type="line"/>
      <point x="975.55695" y="690.9265" type="line"/>
      <point x="975.55695" y="597.45025" type="line"/>
      <point x="638.5602" y="597.45025" type="line"/>
      <point x="638.5602" y="209.3735" type="line"/>
    </contour>
    <contour>
      <point x="173.837125" y="0.0" type="line"/>
      <point x="173.837125" y="91.92325" type="line"/>
      <point x="1027.045575" y="91.92325" type="line"/>
      <point x="1027.045575" y="0.0" type="line"/>
    </contour>
  </outline>
</glyph>
<glyph name="twosuperior" format="1">
  <advance width="1258.8926"/>
  <unicode hex="00B2"/>
  <outline>
    <contour>
      <point x="371.3714" y="624.062" type="line"/>
      <point x="371.3714" y="701.212" type="line"/>
      <point x="541.0814" y="890.685"/>
      <point x="801.8307" y="1097.721"/>
      <point x="801.8307" y="1241.217" type="curve" smooth="yes"/>
      <point x="801.8307" y="1309.571"/>
      <point x="743.7004" y="1367.434"/>
      <point x="639.8437" y="1367.434" type="curve" smooth="yes"/>
      <point x="547.316" y="1367.434"/>
      <point x="503.8372" y="1305.248"/>
      <point x="492.9545" y="1200.553" type="curve"/>
      <point x="393.2965" y="1231.163" type="line"/>
      <point x="403.3844" y="1370.305"/>
      <point x="496.8567" y="1451.261"/>
      <point x="640.7134" y="1451.261" type="curve" smooth="yes"/>
      <point x="784.8502" y="1451.261"/>
      <point x="883.1922" y="1356.491"/>
      <point x="883.1922" y="1243.217" type="curve" smooth="yes"/>
      <point x="883.1922" y="1064.447"/>
      <point x="717.0619" y="910.292"/>
      <point x="486.6775" y="702.119" type="curve"/>
      <point x="889.5212" y="702.119" type="line"/>
      <point x="889.5212" y="624.062" type="line"/>
    </contour>
  </outline>
</glyph>
<glyph name="threesuperior" format="1">
  <advance width="1353.4367"/>
  <unicode hex="00B3"/>
  <outline>
    <contour>
      <point x="607.9121" y="574.491" type="curve" smooth="yes"/>
      <point x="515.5766" y="574.491"/>
      <point x="427.6385" y="607.491"/>
      <point x="376.8307" y="673.522" type="curve"/>
      <point x="436.0978" y="749.212" type="line"/>
      <point x="469.8437" y="699.566"/>
      <point x="542.8437" y="669.858"/>
      <point x="609.5082" y="669.858" type="curve" smooth="yes"/>
      <point x="712.1043" y="669.858"/>
      <point x="793.5636" y="719.181"/>
      <point x="793.5636" y="813.305" type="curve" smooth="yes"/>
      <point x="793.5636" y="932.292"/>
      <point x="695.1727" y="962.199"/>
      <point x="542.6515" y="962.199" type="curve" smooth="yes"/>
      <point x="509.3714" y="962.199" type="line"/>
      <point x="509.3714" y="1067.336" type="line"/>
      <point x="532.7199" y="1067.336" type="line" smooth="yes"/>
      <point x="670.4398" y="1067.336"/>
      <point x="766.3649" y="1090.566"/>
      <point x="766.3649" y="1202.553" type="curve" smooth="yes"/>
      <point x="766.3649" y="1286.646"/>
      <point x="718.8307" y="1321.323"/>
      <point x="630.9675" y="1321.323" type="curve" smooth="yes"/>
      <point x="553.3714" y="1321.323"/>
      <point x="482.303" y="1284.907"/>
      <point x="439.961" y="1236.553" type="curve"/>
      <point x="383.4268" y="1317.659" type="line"/>
      <point x="420.2411" y="1379.69"/>
      <point x="521.8437" y="1427.46"/>
      <point x="613.1792" y="1427.46" type="curve" smooth="yes"/>
      <point x="747.316" y="1427.46"/>
      <point x="869.316" y="1335.982"/>
      <point x="869.316" y="1192.013" type="curve" smooth="yes"/>
      <point x="869.316" y="1103.858"/>
      <point x="822.5212" y="1028.535"/>
      <point x="700.5896" y="1008.305" type="curve"/>
      <point x="813.7264" y="987.044"/>
      <point x="884.4528" y="917.137"/>
      <point x="884.4528" y="810.305" type="curve" smooth="yes"/>
      <point x="884.4528" y="677.615"/>
      <point x="768.9121" y="574.491"/>
    </contour>
  </outline>
</glyph>
<glyph name="acute" format="1">
  <advance width="607.0"/>
  <unicode hex="00B4"/>
  <outline>
    <contour>
      <point x="118.64825" y="1173.8695" type="line"/>
      <point x="315.26385" y="1458.26425" type="line"/>
      <point x="446.70675" y="1458.26425" type="line"/>
      <point x="174.0879" y="1173.8695" type="line"/>
    </contour>
  </outline>
</glyph>
<glyph name="paragraph" format="1">
  <advance width="1191.374575"/>
  <unicode hex="00B6"/>
  <outline>
    <contour>
      <point x="525.17595" y="-179.677" type="line"/>
      <point x="525.17595" y="843.05225" type="line"/>
      <point x="370.928425" y="831.801"/>
      <point x="156.31925" y="931.09625"/>
      <point x="156.31925" y="1139.2235" type="curve" smooth="yes"/>
      <point x="156.31925" y="1382.87275"/>
      <point x="336.690575" y="1456.677"/>
      <point x="612.957675" y="1456.677" type="curve" smooth="yes"/>
      <point x="1004.514625" y="1456.677" type="line"/>
      <point x="1004.514625" y="1380.74725" type="line"/>
      <point x="914.1498" y="1380.74725" type="line"/>
      <point x="914.1498" y="-179.677" type="line"/>
      <point x="840.687325" y="-179.677" type="line"/>
      <point x="840.687325" y="1380.74725" type="line"/>
      <point x="598.2052" y="1380.74725" type="line"/>
      <point x="598.2052" y="-179.677" type="line"/>
    </contour>
  </outline>
</glyph>
<glyph name="periodcentered" format="1">
  <advance width="333.5927"/>
  <unicode hex="00B7"/>
  <outline>
    <contour>
      <point x="85.781725" y="484.951" type="line"/>
      <point x="85.781725" y="652.2005" type="line"/>
      <point x="247.810975" y="652.2005" type="line"/>
      <point x="247.810975" y="484.951" type="line"/>
    </contour>
  </outline>
</glyph>
<glyph name="ordmasculine" format="1">
  <advance width="849.94785"/>
  <unicode hex="00BA"/>
  <outline>
    <contour>
      <point x="430.306175" y="892.447" type="curve" smooth="yes"/>
      <point x="579.364825" y="892.447"/>
      <point x="667.628675" y="990.79775"/>
      <point x="667.628675" y="1146.82225" type="curve" smooth="yes"/>
      <point x="667.628675" y="1309.16975"/>
      <point x="579.364825" y="1407.8745"/>
      <point x="423.94135" y="1407.8745" type="curve" smooth="yes"/>
      <point x="275.1498" y="1407.8745"/>
      <point x="188.517875" y="1309.52375"/>
      <point x="188.517875" y="1151.49925" type="curve" smooth="yes"/>
      <point x="188.517875" y="989.47475"/>
      <point x="270.6156" y="892.447"/>
    </contour>
    <contour>
      <point x="425.94135" y="805.527" type="curve" smooth="yes"/>
      <point x="199.368075" y="805.527"/>
      <point x="81.364825" y="959.75375"/>
      <point x="81.364825" y="1155.17625" type="curve" smooth="yes"/>
      <point x="81.364825" y="1347.95275"/>
      <point x="204.46905" y="1499.8255"/>
      <point x="426.840375" y="1499.8255" type="curve" smooth="yes"/>
      <point x="652.9446" y="1499.8255"/>
      <point x="768.1498" y="1349.82225"/>
      <point x="768.1498" y="1153.2725" type="curve" smooth="yes"/>
      <point x="768.1498" y="962.39975"/>
      <point x="647.14655" y="805.527"/>
    </contour>
  </outline>
</glyph>
<glyph name="guillemotright" format="1">
  <advance width="1039.931525"/>
  <unicode hex="00BB"/>
  <outline>
    <contour>
      <point x="645.7654" y="908.4225" type="line"/>
      <point x="908.76865" y="547.12725" type="line"/>
      <point x="641.931525" y="180.124" type="line"/>
      <point x="527.778475" y="180.124" type="line"/>
      <point x="788.573275" y="546.45025" type="line"/>
      <point x="535.778475" y="908.4225" type="line"/>
    </contour>
    <contour>
      <point x="231.459225" y="908.4225" type="line"/>
      <point x="494.02925" y="547.12725" type="line"/>
      <point x="227.192125" y="180.124" type="line"/>
      <point x="113.4723" y="180.124" type="line"/>
      <point x="374.2671" y="546.45025" type="line"/>
      <point x="121.4723" y="908.4225" type="line"/>
    </contour>
  </outline>
</glyph>
<glyph name="onequarter" format="1">
  <advance width="1889.65135"/>
  <unicode hex="00BC"/>
  <outline>
    <contour>
      <point x="1223.71635" y="64.726" type="line"/>
      <point x="1223.71635" y="248.5025" type="line"/>
      <point x="838.553475" y="248.5025" type="line"/>
      <point x="838.553475" y="324.124" type="line"/>
      <point x="1202.65445" y="851.248" type="line"/>
      <point x="1301.2733" y="851.248" type="line"/>
      <point x="1301.2733" y="336.5775" type="line"/>
      <point x="1404.27655" y="336.5775" type="line"/>
      <point x="1422.905225" y="248.5025" type="line"/>
      <point x="1297.374275" y="248.5025" type="line"/>
      <point x="1297.374275" y="64.726" type="line"/>
    </contour>
    <contour>
      <point x="944.80425" y="336.5775" type="line"/>
      <point x="1221.71635" y="336.5775" type="line"/>
      <point x="1221.71635" y="721.775" type="line"/>
    </contour>
    <contour>
      <point x="302.2083" y="0.0" type="line"/>
      <point x="1222.26695" y="1456.0" type="line"/>
      <point x="1322.726175" y="1456.0" type="line"/>
      <point x="405.400425" y="0.0" type="line"/>
    </contour>
    <contour>
      <point x="259.05865" y="642.801" type="line"/>
      <point x="259.05865" y="732.398" type="line"/>
      <point x="312.928275" y="732.398" type="line"/>
      <point x="312.928275" y="1324.5025" type="line"/>
      <point x="231.9152" y="1282.5775"/>
      <point x="313.807875" y="1282.49925"/>
      <point x="213.7329" y="1246.0245" type="curve"/>
      <point x="215.899025" y="1349.74875" type="line"/>
      <point x="347.599425" y="1391.67375"/>
      <point x="222.693675" y="1377.60025"/>
      <point x="309.338675" y="1428.74875" type="curve"/>
      <point x="375.5927" y="1456.0" type="line"/>
      <point x="375.5927" y="728.30175" type="line"/>
      <point x="450.517725" y="728.30175" type="line"/>
      <point x="450.517725" y="642.801" type="line"/>
    </contour>
  </outline>
</glyph>
<glyph name="onehalf" format="1">
  <advance width="1556.16235"/>
  <unicode hex="00BD"/>
  <outline>
    <contour>
      <point x="278.64825" y="642.801" type="line"/>
      <point x="278.64825" y="732.398" type="line"/>
      <point x="332.517875" y="732.398" type="line"/>
      <point x="332.517875" y="1324.5025" type="line"/>
      <point x="251.5048" y="1282.5775"/>
      <point x="335.130375" y="1282.49925"/>
      <point x="235.0554" y="1246.0245" type="curve"/>
      <point x="235.0554" y="1349.74875" type="line"/>
      <point x="366.7558" y="1391.67375"/>
      <point x="242.283275" y="1377.60025"/>
      <point x="328.928275" y="1428.74875" type="curve"/>
      <point x="395.1823" y="1456.0" type="line"/>
      <point x="395.1823" y="728.30175" type="line"/>
      <point x="470.107325" y="728.30175" type="line"/>
      <point x="470.107325" y="642.801" type="line"/>
    </contour>
    <contour>
      <point x="802.084275" y="0.0" type="line"/>
      <point x="802.084275" y="70.02275" type="line"/>
      <point x="956.6314" y="251.94925"/>
      <point x="1235.142925" y="468.628"/>
      <point x="1235.142925" y="619.25125" type="curve" smooth="yes"/>
      <point x="1235.142925" y="688.0245"/>
      <point x="1176.146175" y="748.82225"/>
      <point x="1068.823675" y="748.82225" type="curve" smooth="yes"/>
      <point x="974.12985" y="748.82225"/>
      <point x="934.9833" y="683.7015"/>
      <point x="929.732525" y="573.9755" type="curve"/>
      <point x="827.04195" y="594.5235" type="line"/>
      <point x="829.765025" y="740.3735"/>
      <point x="921.0712" y="825.10275"/>
      <point x="1068.3937" y="825.10275" type="curve" smooth="yes"/>
      <point x="1211.230825" y="825.10275"/>
      <point x="1306.54025" y="729.075"/>
      <point x="1306.54025" y="621.25125" type="curve" smooth="yes"/>
      <point x="1306.54025" y="440.80425"/>
      <point x="1139.5435" y="284.553"/>
      <point x="903.527175" y="69.25275" type="curve"/>
      <point x="1314.60215" y="69.25275" type="line"/>
      <point x="1314.60215" y="0.0" type="line"/>
    </contour>
    <contour>
      <point x="190.3027" y="0.0" type="line"/>
      <point x="1110.36135" y="1456.0" type="line"/>
      <point x="1210.38735" y="1456.0" type="line"/>
      <point x="293.494825" y="0.0" type="line"/>
    </contour>
  </outline>
</glyph>
<glyph name="AE" format="1">
  <advance width="1860.2148"/>
  <unicode hex="00C6"/>
  <outline>
    <contour>
      <point x="35.162875" y="0.0" type="line"/>
      <point x="869.0" y="1456.0" type="line"/>
      <point x="1776.810975" y="1456.0" type="line"/>
      <point x="1776.810975" y="1369.452" type="line"/>
      <point x="1044.06175" y="1369.452" type="line"/>
      <point x="1092.491725" y="796.1745" type="line"/>
      <point x="1706.8598" y="796.1745" type="line"/>
      <point x="1706.8598" y="719.39975" type="line"/>
      <point x="1089.898875" y="719.39975" type="line"/>
      <point x="1146.79465" y="82.77475" type="line"/>
      <point x="1801.078075" y="82.77475" type="line"/>
      <point x="1801.078075" y="0.0" type="line"/>
      <point x="1079.6156" y="0.0" type="line"/>
      <point x="1036.61885" y="458.7505" type="line"/>
      <point x="387.400575" y="458.7505" type="line"/>
      <point x="123.6481" y="0.0" type="line"/>
    </contour>
    <contour>
      <point x="422.283275" y="535.876" type="line"/>
      <point x="1026.983675" y="535.876" type="line"/>
      <point x="961.0879" y="1369.452" type="line"/>
      <point x="895.195375" y="1369.452" type="line"/>
    </contour>
  </outline>
</glyph>
<glyph name="multiply" format="1">
  <advance width="1177.355"/>
  <unicode hex="00D7"/>
  <outline>
    <contour>
      <point x="270.6221" y="180.27575" type="line"/>
      <point x="211.631925" y="242.2985" type="line"/>
      <point x="527.954425" y="558.9005" type="line"/>
      <point x="211.631925" y="875.92175" type="line"/>
      <point x="270.6221" y="937.52525" type="line"/>
      <point x="588.6775" y="620.92325" type="line"/>
      <point x="904.2671" y="937.52525" type="line"/>
      <point x="965.723075" y="873.1485" type="line"/>
      <point x="648.400575" y="558.9005" type="line"/>
      <point x="965.723075" y="244.6525" type="line"/>
      <point x="904.2671" y="180.27575" type="line"/>
      <point x="588.6775" y="495.20075" type="line"/>
    </contour>
  </outline>
</glyph>
<glyph name="Oslash" format="1">
  <advance width="1663.0"/>
  <unicode hex="00D8"/>
  <outline>
    <contour>
      <point x="408.576525" y="-119.87275" type="line"/>
      <point x="342.631925" y="-71.22675" type="line"/>
      <point x="1179.309425" y="1539.2985" type="line"/>
      <point x="1245.254025" y="1488.9755" type="line"/>
    </contour>
    <component base="O"/>
  </outline>
</glyph>
<glyph name="germandbls" format="1">
  <advance width="1230.37153684"/>
  <unicode hex="00DF"/>
  <outline>
    <contour>
      <point x="778.941561853" y="-23.677" type="curve" smooth="yes"/>
      <point x="587.944811853" y="-23.677"/>
      <point x="446.143511853" y="37.0"/>
      <point x="446.143511853" y="37.0" type="curve"/>
      <point x="457.250986853" y="118.703" type="line"/>
      <point x="457.250986853" y="118.703"/>
      <point x="625.778686853" y="67.15"/>
      <point x="788.000211853" y="60.25275" type="curve" smooth="yes"/>
      <point x="922.319461853" y="55.902"/>
      <point x="1069.59638685" y="162.17775"/>
      <point x="1069.59638685" y="324.7765" type="curve" smooth="yes"/>
      <point x="1069.59638685" y="563.17625"/>
      <point x="786.306386853" y="719.87125"/>
      <point x="541.570236853" y="810.0735" type="curve"/>
      <point x="541.570236853" y="878.64925" type="line"/>
      <point x="877.348861853" y="1010.82225"/>
      <point x="891.169661853" y="1059.124"/>
      <point x="891.169661853" y="1212.372" type="curve" smooth="yes"/>
      <point x="891.169661853" y="1354.5205"/>
      <point x="817.967711853" y="1453.4765"/>
      <point x="599.632136853" y="1453.4765" type="curve" smooth="yes"/>
      <point x="369.355211853" y="1453.4765"/>
      <point x="298.983886853" y="1255.14525"/>
      <point x="298.983886853" y="1065.372" type="curve" smooth="yes"/>
      <point x="298.983886853" y="0.0" type="line"/>
      <point x="194.319461853" y="0.0" type="line"/>
      <point x="196.951386853" y="1057.8255" type="line" smooth="yes"/>
      <point x="197.684286853" y="1330.77325"/>
      <point x="336.094686853" y="1534.1485"/>
      <point x="602.097936853" y="1534.1485" type="curve" smooth="yes"/>
      <point x="856.365036853" y="1534.1485"/>
      <point x="976.778686843" y="1408.1795"/>
      <point x="976.778686843" y="1203.15175" type="curve" smooth="yes"/>
      <point x="976.778686843" y="998.075"/>
      <point x="875.720036853" y="950.7015"/>
      <point x="663.439861853" y="853.677" type="curve" smooth="yes"/>
      <point x="690.925236853" y="867.0245"/>
      <point x="639.863336853" y="840.35075"/>
      <point x="669.980636853" y="848.79775" type="curve"/>
      <point x="639.130436853" y="855.4715"/>
      <point x="679.029461853" y="835.248"/>
      <point x="648.179261853" y="845.049" type="curve" smooth="yes"/>
      <point x="869.338886851" y="743.0245"/>
      <point x="1154.57348684" y="628.5025"/>
      <point x="1154.57348684" y="331.876" type="curve" smooth="yes"/>
      <point x="1154.57348684" y="119.323"/>
      <point x="966.778686843" y="-23.677"/>
    </contour>
  </outline>
</glyph>
<glyph name="divide" format="1">
  <advance width="1005.7131"/>
  <unicode hex="00F7"/>
  <outline>
    <contour>
      <point x="457.925025" y="49.049" type="line"/>
      <point x="612.491725" y="49.049" type="line"/>
      <point x="613.224625" y="215.20225" type="line"/>
      <point x="457.925025" y="215.20225" type="line"/>
    </contour>
    <contour>
      <point x="128.309425" y="510.59875" type="line"/>
      <point x="933.107325" y="510.59875" type="line"/>
      <point x="933.107325" y="601.94775" type="line"/>
      <point x="128.309425" y="601.94775" type="line"/>
    </contour>
    <contour>
      <point x="460.990175" y="896.1485" type="line"/>
      <point x="615.85655" y="896.1485" type="line"/>
      <point x="615.85655" y="1063.398" type="line"/>
      <point x="460.990175" y="1063.398" type="line"/>
    </contour>
  </outline>
</glyph>
<glyph name="thorn" format="1">
  <advance width="1247.329"/>
  <unicode hex="00FE"/>
  <outline>
    <contour>
      <point x="171.159625" y="-449.05225" type="line"/>
      <point x="171.159625" y="1450.4225" type="line"/>
      <point x="285.0879" y="1450.4225" type="line"/>
      <point x="286.986925" y="840.6035" type="line"/>
      <point x="391.042325" y="982.10275"/>
      <point x="504.41365" y="1051.0"/>
      <point x="683.05865" y="1051.0" type="curve" smooth="yes"/>
      <point x="1008.423475" y="1051.0"/>
      <point x="1146.895775" y="815.5465"/>
      <point x="1146.895775" y="528.77325" type="curve" smooth="yes"/>
      <point x="1146.895775" y="238.323"/>
      <point x="992.7948" y="-23.0"/>
      <point x="683.79155" y="-23.0" type="curve" smooth="yes"/>
      <point x="507.042325" y="-23.0"/>
      <point x="385.045575" y="41.89725"/>
      <point x="284.986925" y="181.297" type="curve"/>
      <point x="285.719825" y="-449.05225" type="line"/>
    </contour>
    <contour>
      <point x="663.5896" y="61.349" type="curve" smooth="yes"/>
      <point x="923.70365" y="61.349"/>
      <point x="1034.4952" y="278.40125"/>
      <point x="1034.4952" y="521.0" type="curve" smooth="yes"/>
      <point x="1034.4952" y="748.8255"/>
      <point x="942.602675" y="964.651"/>
      <point x="667.690575" y="964.651" type="curve" smooth="yes"/>
      <point x="380.14655" y="964.651"/>
      <point x="284.986925" y="739.92175"/>
      <point x="284.986925" y="494.0" type="curve" smooth="yes"/>
      <point x="284.986925" y="245.628"/>
      <point x="419.20845" y="61.349"/>
    </contour>
  </outline>
</glyph>
<glyph name="dcroat" format="1">
  <advance width="1271.7948"/>
  <unicode hex="0111"/>
  <outline>
    <contour>
      <point x="569.840375" y="1277.20075" type="line"/>
      <point x="569.840375" y="1404.72275" type="line"/>
      <point x="1173.4104" y="1404.72275" type="line"/>
      <point x="1173.4104" y="1277.20075" type="line"/>
    </contour>
    <component base="d"/>
  </outline>
</glyph>
<glyph name="hbar" format="1">
  <advance width="1245.6515"/>
  <unicode hex="0127"/>
  <outline>
    <contour>
      <point x="28.485375" y="1187.9005" type="line"/>
      <point x="26.31925" y="1307.876" type="line"/>
      <point x="556.67425" y="1307.876" type="line"/>
      <point x="558.840375" y="1187.9005" type="line"/>
    </contour>
    <component base="h"/>
  </outline>
</glyph>
<glyph name="dotlessi" format="1">
  <advance width="472.67425"/>
  <unicode hex="0131"/>
  <outline>
    <contour>
      <point x="186.684075" y="0.0" type="line"/>
      <point x="184.51795" y="1026.0" type="line"/>
      <point x="285.918525" y="1026.0" type="line"/>
      <point x="288.08465" y="0.0" type="line"/>
    </contour>
  </outline>
</glyph>
<glyph name="Lslash" format="1">
  <advance width="1085.784975"/>
  <unicode hex="0141"/>
  <outline>
    <contour>
      <point x="676.690575" y="903.3475" type="line"/>
      <point x="-6.0554" y="536.651" type="line"/>
      <point x="-6.0554" y="611.9755" type="line"/>
      <point x="676.690575" y="976.57575" type="line"/>
    </contour>
    <component base="L"/>
  </outline>
</glyph>
<glyph name="lslash" format="1">
  <advance width="503.0"/>
  <unicode hex="0142"/>
  <outline>
    <contour>
      <point x="206.013075" y="0.0" type="line"/>
      <point x="206.013075" y="662.72425" type="line"/>
      <point x="-5.26385" y="562.72425" type="line"/>
      <point x="-5.26385" y="641.853" type="line"/>
      <point x="206.745975" y="741.853" type="line"/>
      <point x="206.745975" y="1515.8255" type="line"/>
      <point x="308.14655" y="1515.8255" type="line"/>
      <point x="308.14655" y="780.95075" type="line"/>
      <point x="531.485375" y="885.078" type="line"/>
      <point x="531.485375" y="810.0765" type="line"/>
      <point x="307.41365" y="706.30325" type="line"/>
      <point x="307.41365" y="0.0" type="line"/>
    </contour>
  </outline>
</glyph>
<glyph name="oe" format="1">
  <advance width="1945.579775"/>
  <unicode hex="0153"/>
  <outline>
    <contour>
      <point x="1068.35175" y="586.94775" type="curve"/>
      <point x="1794.02615" y="586.94775" type="line"/>
      <point x="1794.02615" y="605.39475"/>
      <point x="1794.02615" y="621.23"/>
      <point x="1792.29325" y="639.677" type="curve" smooth="yes"/>
      <point x="1775.29325" y="808.82875"/>
      <point x="1662.96425" y="964.974"/>
      <point x="1448.58635" y="964.974" type="curve" smooth="yes"/>
      <point x="1219.4104" y="964.974"/>
      <point x="1066.192125" y="784.0245"/>
    </contour>
    <contour>
      <point x="603.042325" y="65.703" type="curve" smooth="yes"/>
      <point x="866.7883" y="65.703"/>
      <point x="984.9121" y="275.1745"/>
      <point x="984.9121" y="511.0" type="curve" smooth="yes"/>
      <point x="984.9121" y="767.27575"/>
      <point x="862.423475" y="964.974"/>
      <point x="594.309425" y="964.974" type="curve" smooth="yes"/>
      <point x="332.928275" y="964.974"/>
      <point x="196.9706" y="764.695"/>
      <point x="195.2377" y="506.323" type="curve" smooth="yes"/>
      <point x="193.5048" y="267.4975"/>
      <point x="318.29635" y="65.703"/>
    </contour>
    <contour>
      <point x="592.6775" y="-22.0" type="curve" smooth="yes"/>
      <point x="249.312675" y="-22.0"/>
      <point x="84.837125" y="219.35075"/>
      <point x="84.837125" y="507.22675" type="curve" smooth="yes"/>
      <point x="84.837125" y="798.64925"/>
      <point x="257.67425" y="1052.0"/>
      <point x="610.9381" y="1052.0" type="curve" smooth="yes"/>
      <point x="812.20195" y="1052.0"/>
      <point x="946.2671" y="945.42575"/>
      <point x="1032.26385" y="757.349" type="curve"/>
      <point x="1100.0" y="936.62475"/>
      <point x="1253.0554" y="1049.54975"/>
      <point x="1430.79155" y="1049.54975" type="curve" smooth="yes"/>
      <point x="1724.79155" y="1049.54975"/>
      <point x="1870.26385" y="835.677"/>
      <point x="1870.26385" y="556.8255" type="curve" smooth="yes"/>
      <point x="1870.26385" y="534.0735" type="line"/>
      <point x="1070.250775" y="534.0735" type="line"/>
      <point x="1069.517875" y="539.651"/>
      <point x="1069.08465" y="473.1485"/>
      <point x="1068.35175" y="478.049" type="curve"/>
      <point x="1061.192125" y="247.64925"/>
      <point x="1235.775225" y="65.703"/>
      <point x="1447.46905" y="65.703" type="curve" smooth="yes"/>
      <point x="1718.013075" y="65.703"/>
      <point x="1771.100975" y="162.1255"/>
      <point x="1771.100975" y="162.1255" type="curve"/>
      <point x="1812.840375" y="77.74875" type="line"/>
      <point x="1812.840375" y="77.74875"/>
      <point x="1747.05215" y="-22.0"/>
      <point x="1442.99675" y="-22.0" type="curve" smooth="yes"/>
      <point x="1245.039075" y="-22.0"/>
      <point x="1079.104225" y="90.47475"/>
      <point x="1022.0" y="286.5515" type="curve"/>
      <point x="956.0" y="77.801"/>
      <point x="804.53095" y="-22.0"/>
    </contour>
  </outline>
</glyph>
<glyph name="tbar" format="1">
  <advance width="665.0325"/>
  <unicode hex="0167"/>
  <outline>
    <contour>
      <point x="9.41365" y="687.15025" type="line"/>
      <point x="9.41365" y="802.39" type="line"/>
      <point x="648.94135" y="802.39" type="line"/>
      <point x="648.94135" y="687.15025" type="line"/>
    </contour>
    <component base="t"/>
  </outline>
</glyph>
<glyph name="dotlessj" format="1">
  <advance width="503.0"/>
  <unicode hex="0237"/>
  <outline>
    <contour>
      <point x="18.0684" y="-443.925" type="curve" smooth="yes"/>
      <point x="-15.2671" y="-443.925"/>
      <point x="-48.9381" y="-444.633"/>
      <point x="-76.8143" y="-438.341" type="curve"/>
      <point x="-78.5472" y="-333.93" type="line"/>
      <point x="-64.5342" y="-335.514"/>
      <point x="-41.1987" y="-337.837"/>
      <point x="-18.7329" y="-337.837" type="curve" smooth="yes"/>
      <point x="143.5147" y="-337.837"/>
      <point x="209.4463" y="-231.359"/>
      <point x="209.4463" y="10.013" type="curve" smooth="yes"/>
      <point x="209.4463" y="1026.0" type="line"/>
      <point x="323.1433" y="1026.0" type="line"/>
      <point x="323.1433" y="112.77" type="line" smooth="yes"/>
      <point x="323.1433" y="-123.969"/>
      <point x="303.9381" y="-443.925"/>
    </contour>
  </outline>
</glyph>
<glyph name="breve" format="1">
  <advance width="503.345175"/>
  <unicode hex="02D8"/>
  <outline>
    <contour>
      <point x="253.455975" y="1241.6265" type="curve" smooth="yes"/>
      <point x="106.87945" y="1241.6265"/>
      <point x="46.166125" y="1313.049"/>
      <point x="33.899025" y="1456.0" type="curve"/>
      <point x="109.355" y="1456.0" type="line"/>
      <point x="113.455975" y="1367.35075"/>
      <point x="151.130225" y="1318.32625"/>
      <point x="253.455975" y="1318.32625" type="curve" smooth="yes"/>
      <point x="355.781725" y="1318.32625"/>
      <point x="381.657925" y="1376.57425"/>
      <point x="395.55695" y="1456.0" type="curve"/>
      <point x="469.44615" y="1456.0" type="line"/>
      <point x="459.345175" y="1318.49925"/>
      <point x="384.869625" y="1241.6265"/>
    </contour>
  </outline>
</glyph>
<glyph name="tilde" format="1">
  <advance width="572.5048"/>
  <unicode hex="02DC"/>
  <outline>
    <contour>
      <point x="19.0619" y="1227.07675" type="line"/>
      <point x="19.0619" y="1331.02775"/>
      <point x="60.7394" y="1400.74875"/>
      <point x="160.312675" y="1400.74875" type="curve" smooth="yes"/>
      <point x="233.723075" y="1400.74875"/>
      <point x="352.521125" y="1305.522"/>
      <point x="445.312675" y="1310.4225" type="curve" smooth="yes"/>
      <point x="493.6775" y="1313.54975"/>
      <point x="472.09115" y="1372.925"/>
      <point x="487.254025" y="1400.74875" type="curve"/>
      <point x="553.4429" y="1400.74875" type="line"/>
      <point x="553.4429" y="1318.85"/>
      <point x="528.661175" y="1205.726"/>
      <point x="428.719825" y="1222.07675" type="curve" smooth="yes"/>
      <point x="364.045575" y="1232.97725"/>
      <point x="248.042325" y="1313.82225"/>
      <point x="162.514625" y="1313.82225" type="curve" smooth="yes"/>
      <point x="88.459225" y="1313.82225"/>
      <point x="87.517875" y="1270.05225"/>
      <point x="80.517875" y="1227.07675" type="curve"/>
    </contour>
  </outline>
</glyph>
<glyph name="hungarumlaut" format="1">
  <advance width="969.0"/>
  <unicode hex="02DD"/>
  <outline>
    <contour>
      <point x="254.28675" y="1207.173" type="line"/>
      <point x="479.4138" y="1447.783" type="line"/>
      <point x="578.45605" y="1447.783" type="line"/>
      <point x="326.3779" y="1207.173" type="line"/>
    </contour>
    <contour>
      <point x="447.3844" y="1207.173" type="line"/>
      <point x="636.72965" y="1447.783" type="line"/>
      <point x="721.44615" y="1447.783" type="line"/>
      <point x="516.9446" y="1207.173" type="line"/>
    </contour>
  </outline>
</glyph>
<glyph name="Omega" format="1">
  <advance width="1603.0"/>
  <unicode hex="03A9"/>
  <outline>
    <contour>
      <point x="124.3225" y="0.0" type="line"/>
      <point x="143.4398" y="90.349" type="line"/>
      <point x="525.3519" y="90.026" type="line"/>
      <point x="301.869775" y="226.57575"/>
      <point x="138.85345" y="438.77475"/>
      <point x="138.85345" y="747.274" type="curve" smooth="yes"/>
      <point x="138.85345" y="1159.04725"/>
      <point x="434.687325" y="1423.40125"/>
      <point x="830.0554" y="1423.40125" type="curve" smooth="yes"/>
      <point x="1240.423475" y="1423.40125"/>
      <point x="1496.05865" y="1130.40125"/>
      <point x="1496.05865" y="748.1745" type="curve" smooth="yes"/>
      <point x="1496.05865" y="430.902"/>
      <point x="1296.68075" y="225.79925"/>
      <point x="1106.459225" y="90.026" type="curve"/>
      <point x="1033.7979" y="90.026"/>
      <point x="1572.918675" y="90.349"/>
      <point x="1504.0554" y="90.349" type="curve"/>
      <point x="1506.016325" y="0.0" type="line"/>
      <point x="1015.133625" y="0.0" type="line"/>
      <point x="1012.599425" y="86.27725" type="line"/>
      <point x="1227.127125" y="227.50075"/>
      <point x="1384.29" y="433.22175"/>
      <point x="1384.29" y="725.274" type="curve" smooth="yes"/>
      <point x="1384.29" y="1047.54975"/>
      <point x="1194.801375" y="1331.05225"/>
      <point x="822.423475" y="1331.05225" type="curve" smooth="yes"/>
      <point x="484.309425" y="1331.05225"/>
      <point x="251.6221" y="1088.80425"/>
      <point x="251.6221" y="731.628" type="curve" smooth="yes"/>
      <point x="251.6221" y="439.57575"/>
      <point x="398.61885" y="227.951"/>
      <point x="619.045575" y="86.27725" type="curve"/>
      <point x="620.14655" y="0.0" type="line"/>
    </contour>
  </outline>
</glyph>
<glyph name="pi" format="1">
  <advance width="1288.0"/>
  <unicode hex="03C0"/>
  <outline>
    <contour>
      <point x="1077.426725" y="0.447" type="curve" smooth="yes"/>
      <point x="928.79155" y="0.447"/>
      <point x="923.133625" y="79.35075"/>
      <point x="923.133625" y="279.9005" type="curve" smooth="yes"/>
      <point x="923.133625" y="927.6265" type="line"/>
      <point x="543.05865" y="927.6265" type="line"/>
      <point x="543.05865" y="927.6265"/>
      <point x="443.87945" y="68.79925"/>
      <point x="332.250775" y="0.0" type="curve"/>
      <point x="226.218275" y="0.0" type="line"/>
      <point x="343.11405" y="118.72425"/>
      <point x="410.16945" y="547.32625"/>
      <point x="443.863275" y="927.6265" type="curve"/>
      <point x="329.4952" y="924.6265"/>
      <point x="213.70365" y="915.7505"/>
      <point x="108.221525" y="868.72275" type="curve"/>
      <point x="91.221525" y="963.0" type="line"/>
      <point x="181.074975" y="1031.47475"/>
      <point x="288.338825" y="1026.0"/>
      <point x="497.82095" y="1026.0" type="curve" smooth="yes"/>
      <point x="1214.0" y="1026.0" type="line"/>
      <point x="1214.0" y="927.6265" type="line"/>
      <point x="1019.53095" y="927.6265" type="line"/>
      <point x="1019.53095" y="217.47625" type="line" smooth="yes"/>
      <point x="1019.53095" y="159.15325"/>
      <point x="1020.53095" y="84.473"/>
      <point x="1113.631925" y="84.473" type="curve" smooth="yes"/>
      <point x="1132.899025" y="84.473"/>
      <point x="1159.4658" y="88.473"/>
      <point x="1189.7329" y="97.473" type="curve"/>
      <point x="1188.7329" y="77.473"/>
      <point x="1186.7329" y="81.9755"/>
      <point x="1186.7329" y="63.6525" type="curve" smooth="yes"/>
      <point x="1186.7329" y="32.6525"/>
      <point x="1189.7329" y="44.77"/>
      <point x="1198.0" y="14.447" type="curve"/>
      <point x="1149.899025" y="5.447"/>
      <point x="1114.693825" y="0.447"/>
    </contour>
  </outline>
</glyph>
<glyph name="endash" format="1">
  <advance width="1066.80455"/>
  <unicode hex="2013"/>
  <outline>
    <contour>
      <point x="-13.33225" y="514.59875" type="line"/>
      <point x="-13.33225" y="603.94775" type="line"/>
      <point x="1064.973925" y="603.94775" type="line"/>
      <point x="1064.973925" y="514.59875" type="line"/>
    </contour>
  </outline>
</glyph>
<glyph name="uni2015" format="1">
  <advance width="4095.13355"/>
  <unicode hex="2015"/>
  <outline>
    <contour>
      <point x="70.72965" y="514.59875" type="line"/>
      <point x="70.72965" y="615.10275" type="line"/>
      <point x="4024.4039" y="615.10275" type="line"/>
      <point x="4024.4039" y="514.59875" type="line"/>
    </contour>
  </outline>
</glyph>
<glyph name="quoteleft" format="1">
  <advance width="432.2996"/>
  <unicode hex="2018"/>
  <outline>
    <contour>
      <point x="299.2377" y="904.47475" type="line"/>
      <point x="213.355" y="904.47475" type="line"/>
      <point x="75.781725" y="1456.0" type="line"/>
      <point x="228.91195" y="1456.0" type="line"/>
    </contour>
  </outline>
</glyph>
<glyph name="quoteright" format="1">
  <advance width="395.3875"/>
  <unicode hex="2019"/>
  <outline>
    <contour>
      <point x="133.0619" y="903.79775" type="line"/>
      <point x="160.9446" y="1456.0" type="line"/>
      <point x="319.605775" y="1456.0" type="line"/>
      <point x="209.88595" y="903.79775" type="line"/>
    </contour>
  </outline>
</glyph>
<glyph name="quotedblright" format="1">
  <advance width="1024.0"/>
  <unicode hex="201D"/>
  <outline>
    <contour>
      <point x="231.687325" y="904.47475" type="line"/>
      <point x="331.5896" y="1456.0" type="line"/>
      <point x="442.8273" y="1456.0" type="line"/>
      <point x="290.990175" y="904.47475" type="line"/>
    </contour>
    <contour>
      <point x="489.55695" y="904.47475" type="line"/>
      <point x="588.5602" y="1456.0" type="line"/>
      <point x="702.429825" y="1456.0" type="line"/>
      <point x="560.85655" y="904.47475" type="line"/>
    </contour>
  </outline>
</glyph>
<glyph name="dagger" format="1">
  <advance width="1022.0"/>
  <unicode hex="2020"/>
  <outline>
    <contour>
      <point x="463.8502" y="118.5775" type="line"/>
      <point x="463.8502" y="982.74725" type="line"/>
      <point x="137.8502" y="982.74725" type="line"/>
      <point x="137.8502" y="1067.77325" type="line"/>
      <point x="463.8502" y="1067.77325" type="line"/>
      <point x="463.8502" y="1473.05225" type="line"/>
      <point x="563.306175" y="1473.05225" type="line"/>
      <point x="563.306175" y="1067.77325" type="line"/>
      <point x="919.0" y="1067.77325" type="line"/>
      <point x="919.0" y="982.74725" type="line"/>
      <point x="537.312675" y="982.74725" type="line"/>
      <point x="537.312675" y="118.5775" type="line"/>
    </contour>
  </outline>
</glyph>
<glyph name="bullet" format="1">
  <advance width="991.166125"/>
  <unicode hex="2022"/>
  <outline>
    <contour>
      <point x="493.0" y="403.925" type="curve" smooth="yes"/>
      <point x="320.32575" y="403.925"/>
      <point x="186.32575" y="537.57425"/>
      <point x="186.32575" y="702.447" type="curve" smooth="yes"/>
      <point x="186.32575" y="871.31975"/>
      <point x="316.99675" y="1010.0"/>
      <point x="493.0" y="1010.0" type="curve" smooth="yes"/>
      <point x="664.573275" y="1010.0"/>
      <point x="804.840375" y="866.5465"/>
      <point x="804.840375" y="702.447" type="curve" smooth="yes"/>
      <point x="804.840375" y="532.89725"/>
      <point x="671.00325" y="403.925"/>
    </contour>
  </outline>
</glyph>
<glyph name="ellipsis" format="1">
  <advance width="1620.0"/>
  <unicode hex="2026"/>
  <outline>
    <contour>
      <point x="192.482125" y="-11.0" type="line"/>
      <point x="192.482125" y="156.2495" type="line"/>
      <point x="345.8827" y="156.2495" type="line"/>
      <point x="345.1498" y="-11.0" type="line"/>
    </contour>
    <contour>
      <point x="746.807875" y="-11.0" type="line"/>
      <point x="746.807875" y="156.2495" type="line"/>
      <point x="900.20845" y="156.2495" type="line"/>
      <point x="899.042325" y="-11.0" type="line"/>
    </contour>
    <contour>
      <point x="1301.133625" y="-11.0" type="line"/>
      <point x="1301.133625" y="156.2495" type="line"/>
      <point x="1456.0" y="156.2495" type="line"/>
      <point x="1456.0" y="-11.0" type="line"/>
    </contour>
  </outline>
</glyph>
<glyph name="perthousand" format="1">
  <advance width="2319.56655"/>
  <unicode hex="2030"/>
  <outline>
    <contour>
      <point x="1924.68385" y="-31.9005" type="curve" smooth="yes"/>
      <point x="1706.315775" y="-31.9005"/>
      <point x="1620.169225" y="128.00325"/>
      <point x="1620.169225" y="327.6525" type="curve" smooth="yes"/>
      <point x="1620.169225" y="529.52525"/>
      <point x="1720.47865" y="697.84825"/>
      <point x="1935.9477" y="697.84825" type="curve" smooth="yes"/>
      <point x="2160.9477" y="697.84825"/>
      <point x="2238.729425" y="544.199"/>
      <point x="2238.729425" y="336.876" type="curve" smooth="yes"/>
      <point x="2238.729425" y="137.22675"/>
      <point x="2139.1529" y="-31.9005"/>
    </contour>
    <contour>
      <point x="1930.315775" y="50.60025" type="curve" smooth="yes"/>
      <point x="2107.3321" y="50.60025"/>
      <point x="2145.169225" y="212.99675"/>
      <point x="2145.169225" y="338.97225" type="curve" smooth="yes"/>
      <point x="2145.169225" y="484.29525"/>
      <point x="2100.4689" y="615.3475"/>
      <point x="1933.781575" y="615.3475" type="curve" smooth="yes"/>
      <point x="1757.5633" y="615.3475"/>
      <point x="1713.729425" y="458.30175"/>
      <point x="1713.729425" y="325.9755" type="curve" smooth="yes"/>
      <point x="1713.729425" y="192.87275"/>
      <point x="1755.465575" y="50.60025"/>
    </contour>
    <component base="percent"/>
  </outline>
</glyph>
<glyph name="guilsinglleft" format="1">
  <advance width="634.254025"/>
  <unicode hex="2039"/>
  <outline>
    <contour>
      <point x="401.00325" y="180.124" type="line"/>
      <point x="138.0" y="541.0" type="line"/>
      <point x="404.837125" y="908.4225" type="line"/>
      <point x="518.990175" y="908.4225" type="line"/>
      <point x="258.195375" y="541.677" type="line"/>
      <point x="510.990175" y="180.124" type="line"/>
    </contour>
  </outline>
</glyph>
<glyph name="Euro" format="1">
  <advance width="1190.0"/>
  <unicode hex="20AC"/>
  <outline>
    <contour>
      <point x="776.58635" y="-21.0" type="curve" smooth="yes"/>
      <point x="450.31925" y="-21.0"/>
      <point x="276.954425" y="205.22025"/>
      <point x="243.1173" y="541.695" type="curve"/>
      <point x="108.1173" y="541.695" type="line"/>
      <point x="122.85345" y="673.7325" type="line"/>
      <point x="234.64825" y="673.7325" type="line"/>
      <point x="238.31275" y="688.12075"/>
      <point x="236.146625" y="774.447"/>
      <point x="232.482125" y="777.615" type="curve"/>
      <point x="107.016325" y="777.615" type="line"/>
      <point x="121.85345" y="916.4225" type="line"/>
      <point x="247.3844" y="916.4225" type="line"/>
      <point x="298.12055" y="1238.124"/>
      <point x="491.85345" y="1470.05225"/>
      <point x="813.1173" y="1470.05225" type="curve" smooth="yes"/>
      <point x="939.12055" y="1470.05225"/>
      <point x="1036.892525" y="1436.27575"/>
      <point x="1111.99675" y="1367.173" type="curve"/>
      <point x="1085.05865" y="1158.15175" type="line"/>
      <point x="1035.280175" y="1298.77825"/>
      <point x="938.17595" y="1369.576"/>
      <point x="801.58635" y="1369.576" type="curve" smooth="yes"/>
      <point x="545.20845" y="1369.576"/>
      <point x="400.355" y="1158.372"/>
      <point x="356.986925" y="916.4225" type="curve"/>
      <point x="986.2671" y="916.4225" type="line"/>
      <point x="972.26385" y="777.615" type="line"/>
      <point x="346.8827" y="777.615" type="line"/>
      <point x="348.648175" y="785.22025"/>
      <point x="352.5472" y="650.4535"/>
      <point x="345.983675" y="673.7325" type="curve"/>
      <point x="950.368075" y="673.7325" type="line"/>
      <point x="935.899025" y="541.695" type="line"/>
      <point x="358.517875" y="541.695" type="line"/>
      <point x="389.517875" y="267.9445"/>
      <point x="510.778475" y="78.026"/>
      <point x="794.485375" y="78.026" type="curve" smooth="yes"/>
      <point x="1123.7233" y="78.026"/>
      <point x="1252.18585" y="253.633"/>
      <point x="1094.0619" y="183.43875" type="curve"/>
      <point x="1090.162875" y="65.876" type="line"/>
      <point x="999.05865" y="3.7765"/>
      <point x="892.3225" y="-21.0"/>
    </contour>
  </outline>
</glyph>
<glyph name="product" format="1">
  <advance width="1568.0"/>
  <unicode hex="220F"/>
  <outline>
    <contour>
      <point x="281.1173" y="-100.0" type="line"/>
      <point x="281.1173" y="1350.62325" type="line"/>
      <point x="159.074975" y="1350.62325" type="line"/>
      <point x="155.17595" y="1456.0" type="line"/>
      <point x="1465.0619" y="1456.0" type="line"/>
      <point x="1463.162875" y="1350.62325" type="line"/>
      <point x="1334.162875" y="1350.62325" type="line"/>
      <point x="1334.162875" y="-100.0" type="line"/>
      <point x="1234.08805" y="-100.0" type="line"/>
      <point x="1234.08805" y="1350.62325" type="line"/>
      <point x="381.55695" y="1350.62325" type="line"/>
      <point x="381.55695" y="-100.0" type="line"/>
    </contour>
  </outline>
</glyph>
<glyph name="minus" format="1">
  <advance width="1007.879225"/>
  <unicode hex="2212"/>
  <outline>
    <contour>
      <point x="137.514625" y="644.94975" type="line"/>
      <point x="137.514625" y="736.749" type="line"/>
      <point x="869.931375" y="736.749" type="line"/>
      <point x="869.931375" y="644.94975" type="line"/>
    </contour>
  </outline>
</glyph>
<glyph name="radical" format="1">
  <advance width="1314.0"/>
  <unicode hex="221A"/>
  <outline>
    <contour>
      <point x="655.009825" y="-160.35075" type="line"/>
      <point x="302.687325" y="728.527" type="line"/>
      <point x="305.31925" y="729.204"/>
      <point x="122.05865" y="702.30025"/>
      <point x="122.05865" y="702.30025" type="curve"/>
      <point x="120.482125" y="766.64925" type="line"/>
      <point x="359.045575" y="811.6525" type="line"/>
      <point x="697.218275" y="-115.71975" type="line"/>
      <point x="1158.02615" y="1625.82225" type="line"/>
      <point x="1213.899025" y="1625.82225" type="line"/>
      <point x="736.9381" y="-160.35075" type="line"/>
    </contour>
  </outline>
</glyph>
<glyph name="infinity" format="1">
  <advance width="1710.840375"/>
  <unicode hex="221E"/>
  <outline>
    <contour>
      <point x="454.73615" y="239.12725" type="curve" smooth="yes"/>
      <point x="242.100975" y="239.12725"/>
      <point x="96.0" y="406.54975"/>
      <point x="96.0" y="602.199" type="curve" smooth="yes"/>
      <point x="96.0" y="781.6215"/>
      <point x="264.100975" y="922.62475"/>
      <point x="449.73615" y="922.62475" type="curve" smooth="yes"/>
      <point x="610.837125" y="922.62475"/>
      <point x="737.371325" y="819.4975"/>
      <point x="851.4723" y="673.075" type="curve"/>
      <point x="961.7394" y="815.4975"/>
      <point x="1081.573275" y="922.62475"/>
      <point x="1246.94135" y="922.62475" type="curve" smooth="yes"/>
      <point x="1463.309425" y="922.62475"/>
      <point x="1601.4104" y="782.6215"/>
      <point x="1601.4104" y="586.97225" type="curve" smooth="yes"/>
      <point x="1601.4104" y="380.646"/>
      <point x="1435.309425" y="239.12725"/>
      <point x="1244.94135" y="239.12725" type="curve" smooth="yes"/>
      <point x="1098.840375" y="239.12725"/>
      <point x="979.573275" y="327.35075"/>
      <point x="849.4723" y="489.77325" type="curve"/>
      <point x="737.371325" y="347.67375"/>
      <point x="612.837125" y="239.12725"/>
    </contour>
    <contour>
      <point x="447.20845" y="333.62475" type="curve" smooth="yes"/>
      <point x="579.573275" y="333.62475"/>
      <point x="688.4723" y="443.9445"/>
      <point x="783.837125" y="580.97225" type="curve"/>
      <point x="688.4723" y="724.0"/>
      <point x="579.573275" y="835.67375"/>
      <point x="437.20845" y="835.67375" type="curve" smooth="yes"/>
      <point x="290.843625" y="835.67375"/>
      <point x="195.8827" y="719.323"/>
      <point x="195.8827" y="584.64925" type="curve" smooth="yes"/>
      <point x="195.8827" y="455.6215"/>
      <point x="300.843625" y="333.62475"/>
    </contour>
    <contour>
      <point x="1249.840375" y="333.62475" type="curve" smooth="yes"/>
      <point x="1403.2052" y="333.62475"/>
      <point x="1483.899025" y="454.20225"/>
      <point x="1483.899025" y="611.32625" type="curve" smooth="yes"/>
      <point x="1483.899025" y="732.677"/>
      <point x="1380.2052" y="835.67375"/>
      <point x="1244.840375" y="835.67375" type="curve" smooth="yes"/>
      <point x="1108.309425" y="835.67375"/>
      <point x="992.843625" y="713.323"/>
      <point x="907.9446" y="584.64925" type="curve"/>
      <point x="1029.576525" y="419.84825"/>
      <point x="1123.47555" y="333.62475"/>
    </contour>
  </outline>
</glyph>
<glyph name="integral" format="1">
  <advance width="655.2377"/>
  <unicode hex="222B"/>
  <outline>
    <contour>
      <point x="106.723075" y="-281.84825" type="curve" smooth="yes"/>
      <point x="38.68075" y="-281.84825"/>
      <point x="-1.79155" y="-264.6525"/>
      <point x="-1.79155" y="-264.6525" type="curve"/>
      <point x="-1.79155" y="-177.049" type="line"/>
      <point x="-1.79155" y="-177.049"/>
      <point x="33.88595" y="-191.372"/>
      <point x="78.723075" y="-191.372" type="curve" smooth="yes"/>
      <point x="253.46905" y="-191.372"/>
      <point x="286.364825" y="-102.7015"/>
      <point x="286.364825" y="62.124" type="curve" smooth="yes"/>
      <point x="286.364825" y="1229.82225" type="line" smooth="yes"/>
      <point x="286.364825" y="1442.695"/>
      <point x="330.576525" y="1599.8255"/>
      <point x="555.6775" y="1599.8255" type="curve" smooth="yes"/>
      <point x="636.41365" y="1599.8255"/>
      <point x="647.56345" y="1582.372"/>
      <point x="647.56345" y="1582.372" type="curve"/>
      <point x="647.56345" y="1500.346" type="line"/>
      <point x="647.56345" y="1500.346"/>
      <point x="631.048825" y="1510.02625"/>
      <point x="575.781725" y="1510.02625" type="curve" smooth="yes"/>
      <point x="404.400575" y="1510.02625"/>
      <point x="384.866375" y="1421.098"/>
      <point x="384.866375" y="1256.2725" type="curve" smooth="yes"/>
      <point x="384.866375" y="89.25125" type="line" smooth="yes"/>
      <point x="384.866375" y="-123.6215"/>
      <point x="330.35825" y="-281.84825"/>
    </contour>
  </outline>
</glyph>
<glyph name="notequal" format="1">
  <advance width="1325.68075"/>
  <unicode hex="2260"/>
  <outline>
    <contour>
      <point x="426.61885" y="53.35075" type="line"/>
      <point x="359.5896" y="62.22675" type="line"/>
      <point x="500.749225" y="342.15175" type="line"/>
      <point x="169.53095" y="342.15175" type="line"/>
      <point x="169.53095" y="414.50075" type="line"/>
      <point x="534.99675" y="414.50075" type="line"/>
      <point x="720.44305" y="766.527" type="line"/>
      <point x="169.53095" y="766.527" type="line"/>
      <point x="169.53095" y="839.876" type="line"/>
      <point x="751.423475" y="839.876" type="line"/>
      <point x="894.58635" y="1123.677" type="line"/>
      <point x="961.983675" y="1114.124" type="line"/>
      <point x="825.6221" y="839.876" type="line"/>
      <point x="1156.1498" y="839.876" type="line"/>
      <point x="1156.1498" y="766.527" type="line"/>
      <point x="791.309425" y="766.527" type="line"/>
      <point x="607.195375" y="414.50075" type="line"/>
      <point x="1156.1498" y="414.50075" type="line"/>
      <point x="1156.1498" y="342.15175" type="line"/>
      <point x="573.781725" y="342.15175" type="line"/>
    </contour>
  </outline>
</glyph>
<glyph name="lozenge" format="1">
  <advance width="1248.0"/>
  <unicode hex="25CA"/>
  <outline>
    <contour>
      <point x="631.957675" y="7.5985" type="line"/>
      <point x="1056.925175" y="720.124" type="line"/>
      <point x="644.5896" y="1443.54675" type="line"/>
      <point x="219.6221" y="723.89725" type="line"/>
    </contour>
    <contour>
      <point x="600.745975" y="-49.2235" type="line"/>
      <point x="142.8502" y="720.124" type="line"/>
      <point x="610.645" y="1493.1485" type="line"/>
      <point x="675.100975" y="1493.1485" type="line"/>
      <point x="1135.99675" y="721.124" type="line"/>
      <point x="664.635175" y="-49.2235" type="line"/>
    </contour>
  </outline>
</glyph>
<glyph name="fl" format="1">
  <advance width="1228.8762"/>
  <unicode hex="FB02"/>
  <outline>
    <contour>
      <point x="388.2931" y="953.527" type="line"/>
      <point x="388.2931" y="0.0" type="line"/>
      <point x="276.329" y="0.0" type="line"/>
      <point x="276.329" y="953.527" type="line"/>
      <point x="66.5342" y="953.527" type="line"/>
      <point x="66.5342" y="1026.0" type="line"/>
      <point x="276.329" y="1026.0" type="line"/>
      <point x="276.329" y="1155.297" type="line" smooth="yes"/>
      <point x="276.329" y="1388.31"/>
      <point x="375.8567" y="1468.031"/>
      <point x="784.7753" y="1468.031" type="curve" smooth="yes"/>
      <point x="1026.9576" y="1468.031" type="line"/>
      <point x="1026.9576" y="0.0" type="line"/>
      <point x="914.2606" y="0.0" type="line"/>
      <point x="914.2606" y="1379.943" type="line"/>
      <point x="752.5277" y="1379.943" type="line" smooth="yes"/>
      <point x="434.4918" y="1379.943"/>
      <point x="388.2931" y="1331.589"/>
      <point x="388.2931" y="1160.695" type="curve" smooth="yes"/>
      <point x="388.2931" y="1026.0" type="line"/>
      <point x="648.2866" y="1026.0" type="line"/>
      <point x="648.2866" y="953.527" type="line"/>
    </contour>
  </outline>
</glyph>
